<?xml version="1.0" encoding="utf-8"?>
<!-- Generator: Adobe Illustrator 25.4.1, SVG Export Plug-In . SVG Version: 6.00 Build 0)  -->
<svg version="1.1" id="Layer_1" xmlns="http://www.w3.org/2000/svg" xmlns:xlink="http://www.w3.org/1999/xlink" x="0px" y="0px"
	 viewBox="0 0 500 500" style="enable-background:new 0 0 500 500;" xml:space="preserve">
<style type="text/css">
	.st0{fill:currentColor;}
</style>
<g>
	<path class="st0" d="M147.1,284.1v68.2v34.1c0,18.8,15.3,34.1,34.1,34.1h0.4c18.8,0,34.1-15.3,34.1-34.1v-34.1v-68.2V250
		c0-18.8-15.3-34.1-34.1-34.1h-0.4c-18.8,0-34.1,15.3-34.1,34.1V284.1z"/>
	<path class="st0" d="M284.3,488.7h68.6h68.6h34.5c18.8,0,34.1-15.3,34.1-34.1v0c0-18.8-15.3-34.1-34.1-34.1h-34.5H387
		c-18.8,0-34.1-15.3-34.1-34.1v-34.1v-34.1c0-18.8-15.3-34.1-34.1-34.1h-0.4c-18.8,0-34.1,15.3-34.1,34.1v34.1v34.1
		c0,18.8-15.3,34.1-34.1,34.1h-0.4c-18.8,0-34.1,15.3-34.1,34.1v0c0,18.8,15.3,34.1,34.1,34.1H284.3z"/>
	<path class="st0" d="M421.4,11.3H387c-18.8,0-34.1,15.3-34.1,34.1v0c0,18.8-15.3,34.1-34.1,34.1h-34.5h-34.5
		c-18.8,0-34.1,15.3-34.1,34.1v34.1v34.1c0,18.8,15.3,34.1,34.1,34.1h34.5h34.5c18.8,0,34.1-15.3,34.1-34.1v0
		c0-18.8,15.3-34.1,34.1-34.1h0.4c18.8,0,34.1,15.3,34.1,34.1v0c0,18.8,15.3,34.1,34.1,34.1h0.4c18.8,0,34.1-15.3,34.1-34.1v-34.1
		V79.5V45.4c0-18.8-15.3-34.1-34.1-34.1H421.4z"/>
	<path class="st0" d="M455.5,352.3h0.4c18.8,0,34.1-15.3,34.1-34.1v0c0-18.8-15.3-34.1-34.1-34.1h-0.4c-18.8,0-34.1,15.3-34.1,34.1
		v0C421.4,337,436.7,352.3,455.5,352.3z"/>
	<path class="st0" d="M10,79.5v68.2v68.2v68.2v68.2v68.2v34.1c0,18.8,15.3,34.1,34.1,34.1h0.4c18.8,0,34.1-15.3,34.1-34.1v-34.1
		v-68.2v-68.2v-68.2v-68.2V79.5V45.4c0-18.8-15.3-34.1-34.1-34.1h-0.4C25.3,11.3,10,26.5,10,45.4V79.5z"/>
</g>
</svg>
