<?xml version="1.0" encoding="utf-8" standalone="no"?>
<!DOCTYPE svg PUBLIC "-//W3C//DTD SVG 1.1//EN"
  "http://www.w3.org/Graphics/SVG/1.1/DTD/svg11.dtd">
<svg xmlns:xlink="http://www.w3.org/1999/xlink" width="405pt" height="306.718125pt" viewBox="0 0 405 306.718125" xmlns="http://www.w3.org/2000/svg" version="1.1">
 <metadata>
  <rdf:RDF xmlns:dc="http://purl.org/dc/elements/1.1/" xmlns:cc="http://creativecommons.org/ns#" xmlns:rdf="http://www.w3.org/1999/02/22-rdf-syntax-ns#">
   <cc:Work>
    <dc:type rdf:resource="http://purl.org/dc/dcmitype/StillImage"/>
    <dc:date>2023-06-28T12:32:45.117523</dc:date>
    <dc:format>image/svg+xml</dc:format>
    <dc:creator>
     <cc:Agent>
      <dc:title>Matplotlib v3.7.1, https://matplotlib.org/</dc:title>
     </cc:Agent>
    </dc:creator>
   </cc:Work>
  </rdf:RDF>
 </metadata>
 <defs>
  <style type="text/css">*{stroke-linejoin: round; stroke-linecap: butt}</style>
 </defs>
 <g id="figure_1">
  <g id="patch_1">
   <path d="M 0 306.718125 
L 405 306.718125 
L 405 0 
L 0 0 
z
" style="fill: #ffffff"/>
  </g>
  <g id="axes_1">
   <g id="patch_2">
    <path d="M 7.2 299.518125 
L 397.8 299.518125 
L 397.8 22.318125 
L 7.2 22.318125 
z
" style="fill: #ffffff"/>
   </g>
   <g id="PathCollection_1">
    <defs>
     <path id="mfc6139521a" d="M -1.414214 0 
L 1.414214 0 
M 0 1.414214 
L 0 -1.414214 
" style="stroke: #000000; stroke-width: 1.5"/>
    </defs>
    <g clip-path="url(#p88ee972c22)">
     <use xlink:href="#mfc6139521a" x="72.308171" y="152.706753" style="stroke: #000000; stroke-width: 1.5"/>
     <use xlink:href="#mfc6139521a" x="179.701563" y="261.782644" style="stroke: #000000; stroke-width: 1.5"/>
     <use xlink:href="#mfc6139521a" x="72.264132" y="165.554291" style="stroke: #000000; stroke-width: 1.5"/>
     <use xlink:href="#mfc6139521a" x="152.208522" y="35.26978" style="stroke: #000000; stroke-width: 1.5"/>
     <use xlink:href="#mfc6139521a" x="76.007378" y="193.952132" style="stroke: #000000; stroke-width: 1.5"/>
     <use xlink:href="#mfc6139521a" x="111.9661" y="65.87455" style="stroke: #000000; stroke-width: 1.5"/>
     <use xlink:href="#mfc6139521a" x="72.080293" y="147.436206" style="stroke: #000000; stroke-width: 1.5"/>
     <use xlink:href="#mfc6139521a" x="96.631847" y="95.458829" style="stroke: #000000; stroke-width: 1.5"/>
     <use xlink:href="#mfc6139521a" x="56.034019" y="127.358908" style="stroke: #000000; stroke-width: 1.5"/>
     <use xlink:href="#mfc6139521a" x="215.685911" y="69.133921" style="stroke: #000000; stroke-width: 1.5"/>
    </g>
   </g>
   <g id="PathCollection_2">
    <defs>
     <path id="m887010e2e8" d="M -1.414214 0 
L 1.414214 0 
M 0 1.414214 
L 0 -1.414214 
" style="stroke: #0000ff; stroke-width: 1.5"/>
    </defs>
    <g clip-path="url(#p88ee972c22)">
     <use xlink:href="#m887010e2e8" x="146.458644" y="193.97876" style="fill: #0000ff; stroke: #0000ff; stroke-width: 1.5"/>
     <use xlink:href="#m887010e2e8" x="172.36203" y="227.32117" style="fill: #0000ff; stroke: #0000ff; stroke-width: 1.5"/>
     <use xlink:href="#m887010e2e8" x="184.890835" y="223.000954" style="fill: #0000ff; stroke: #0000ff; stroke-width: 1.5"/>
     <use xlink:href="#m887010e2e8" x="201.901678" y="233.992619" style="fill: #0000ff; stroke: #0000ff; stroke-width: 1.5"/>
     <use xlink:href="#m887010e2e8" x="170.115835" y="231.973258" style="fill: #0000ff; stroke: #0000ff; stroke-width: 1.5"/>
     <use xlink:href="#m887010e2e8" x="193.973042" y="236.506156" style="fill: #0000ff; stroke: #0000ff; stroke-width: 1.5"/>
     <use xlink:href="#m887010e2e8" x="230.824216" y="210.584037" style="fill: #0000ff; stroke: #0000ff; stroke-width: 1.5"/>
     <use xlink:href="#m887010e2e8" x="205.895986" y="219.866159" style="fill: #0000ff; stroke: #0000ff; stroke-width: 1.5"/>
     <use xlink:href="#m887010e2e8" x="203.941203" y="244.384077" style="fill: #0000ff; stroke: #0000ff; stroke-width: 1.5"/>
     <use xlink:href="#m887010e2e8" x="195.297172" y="206.768538" style="fill: #0000ff; stroke: #0000ff; stroke-width: 1.5"/>
    </g>
   </g>
   <g id="PathCollection_3">
    <defs>
     <path id="m0f8e30459b" d="M -1.414214 0 
L 1.414214 0 
M 0 1.414214 
L 0 -1.414214 
" style="stroke: #ff0000; stroke-width: 1.5"/>
    </defs>
    <g clip-path="url(#p88ee972c22)">
     <use xlink:href="#m0f8e30459b" x="258.504353" y="180.879552" style="fill: #ff0000; stroke: #ff0000; stroke-width: 1.5"/>
     <use xlink:href="#m0f8e30459b" x="260.485473" y="199.283101" style="fill: #ff0000; stroke: #ff0000; stroke-width: 1.5"/>
     <use xlink:href="#m0f8e30459b" x="249.367926" y="195.81713" style="fill: #ff0000; stroke: #ff0000; stroke-width: 1.5"/>
     <use xlink:href="#m0f8e30459b" x="262.003298" y="110.854711" style="fill: #ff0000; stroke: #ff0000; stroke-width: 1.5"/>
     <use xlink:href="#m0f8e30459b" x="258.416589" y="91.88552" style="fill: #ff0000; stroke: #ff0000; stroke-width: 1.5"/>
     <use xlink:href="#m0f8e30459b" x="224.996389" y="90.45163" style="fill: #ff0000; stroke: #ff0000; stroke-width: 1.5"/>
     <use xlink:href="#m0f8e30459b" x="164.3766" y="101.731677" style="fill: #ff0000; stroke: #ff0000; stroke-width: 1.5"/>
     <use xlink:href="#m0f8e30459b" x="194.112527" y="78.455715" style="fill: #ff0000; stroke: #ff0000; stroke-width: 1.5"/>
     <use xlink:href="#m0f8e30459b" x="149.927489" y="151.455091" style="fill: #ff0000; stroke: #ff0000; stroke-width: 1.5"/>
     <use xlink:href="#m0f8e30459b" x="152.044157" y="160.163894" style="fill: #ff0000; stroke: #ff0000; stroke-width: 1.5"/>
    </g>
   </g>
   <g id="PathCollection_4">
    <defs>
     <path id="m06fe8df6bf" d="M -1.414214 0 
L 1.414214 0 
M 0 1.414214 
L 0 -1.414214 
" style="stroke: #ffc0cb; stroke-width: 1.5"/>
    </defs>
    <g clip-path="url(#p88ee972c22)">
     <use xlink:href="#m06fe8df6bf" x="204.434017" y="139.679523" style="fill: #ffc0cb; stroke: #ffc0cb; stroke-width: 1.5"/>
     <use xlink:href="#m06fe8df6bf" x="221.791037" y="198.337508" style="fill: #ffc0cb; stroke: #ffc0cb; stroke-width: 1.5"/>
     <use xlink:href="#m06fe8df6bf" x="226.811904" y="116.374888" style="fill: #ffc0cb; stroke: #ffc0cb; stroke-width: 1.5"/>
     <use xlink:href="#m06fe8df6bf" x="139.384862" y="159.955014" style="fill: #ffc0cb; stroke: #ffc0cb; stroke-width: 1.5"/>
     <use xlink:href="#m06fe8df6bf" x="148.532773" y="180.730272" style="fill: #ffc0cb; stroke: #ffc0cb; stroke-width: 1.5"/>
     <use xlink:href="#m06fe8df6bf" x="140.104129" y="79.259119" style="fill: #ffc0cb; stroke: #ffc0cb; stroke-width: 1.5"/>
     <use xlink:href="#m06fe8df6bf" x="129.523895" y="143.997736" style="fill: #ffc0cb; stroke: #ffc0cb; stroke-width: 1.5"/>
     <use xlink:href="#m06fe8df6bf" x="201.034275" y="126.0668" style="fill: #ffc0cb; stroke: #ffc0cb; stroke-width: 1.5"/>
     <use xlink:href="#m06fe8df6bf" x="238.832271" y="205.747871" style="fill: #ffc0cb; stroke: #ffc0cb; stroke-width: 1.5"/>
     <use xlink:href="#m06fe8df6bf" x="159.543997" y="215.817931" style="fill: #ffc0cb; stroke: #ffc0cb; stroke-width: 1.5"/>
    </g>
   </g>
   <g id="PathCollection_5">
    <defs>
     <path id="me887e086fe" d="M 0 0.707107 
C 0.187527 0.707107 0.367398 0.632602 0.5 0.5 
C 0.632602 0.367398 0.707107 0.187527 0.707107 0 
C 0.707107 -0.187527 0.632602 -0.367398 0.5 -0.5 
C 0.367398 -0.632602 0.187527 -0.707107 0 -0.707107 
C -0.187527 -0.707107 -0.367398 -0.632602 -0.5 -0.5 
C -0.632602 -0.367398 -0.707107 -0.187527 -0.707107 0 
C -0.707107 0.187527 -0.632602 0.367398 -0.5 0.5 
C -0.367398 0.632602 -0.187527 0.707107 0 0.707107 
z
" style="stroke: #000000"/>
    </defs>
    <g clip-path="url(#p88ee972c22)">
     <use xlink:href="#me887e086fe" x="195.984842" y="145.342316" style="stroke: #000000"/>
     <use xlink:href="#me887e086fe" x="232.129697" y="178.825625" style="stroke: #000000"/>
     <use xlink:href="#me887e086fe" x="252.945124" y="186.616064" style="stroke: #000000"/>
     <use xlink:href="#me887e086fe" x="196.842188" y="143.460889" style="stroke: #000000"/>
     <use xlink:href="#me887e086fe" x="143.285117" y="81.104505" style="stroke: #000000"/>
     <use xlink:href="#me887e086fe" x="155.348386" y="88.351605" style="stroke: #000000"/>
     <use xlink:href="#me887e086fe" x="181.418934" y="138.472564" style="stroke: #000000"/>
     <use xlink:href="#me887e086fe" x="179.096181" y="99.060928" style="stroke: #000000"/>
     <use xlink:href="#me887e086fe" x="144.862036" y="106.060923" style="stroke: #000000"/>
     <use xlink:href="#me887e086fe" x="101.138404" y="113.06085" style="stroke: #000000"/>
    </g>
   </g>
   <g id="PathCollection_6">
    <defs>
     <path id="mf7f20e4edf" d="M 0 0.707107 
C 0.187527 0.707107 0.367398 0.632602 0.5 0.5 
C 0.632602 0.367398 0.707107 0.187527 0.707107 0 
C 0.707107 -0.187527 0.632602 -0.367398 0.5 -0.5 
C 0.367398 -0.632602 0.187527 -0.707107 0 -0.707107 
C -0.187527 -0.707107 -0.367398 -0.632602 -0.5 -0.5 
C -0.632602 -0.367398 -0.707107 -0.187527 -0.707107 0 
C -0.707107 0.187527 -0.632602 0.367398 -0.5 0.5 
C -0.367398 0.632602 -0.187527 0.707107 0 0.707107 
z
" style="stroke: #0000ff"/>
    </defs>
    <g clip-path="url(#p88ee972c22)">
     <use xlink:href="#mf7f20e4edf" x="107.353028" y="176.864661" style="fill: #0000ff; stroke: #0000ff"/>
     <use xlink:href="#mf7f20e4edf" x="110.214216" y="171.8388" style="fill: #0000ff; stroke: #0000ff"/>
     <use xlink:href="#mf7f20e4edf" x="95.752225" y="173.396087" style="fill: #0000ff; stroke: #0000ff"/>
     <use xlink:href="#mf7f20e4edf" x="34.9559" y="129.349163" style="fill: #0000ff; stroke: #0000ff"/>
     <use xlink:href="#mf7f20e4edf" x="40.632098" y="112.885803" style="fill: #0000ff; stroke: #0000ff"/>
     <use xlink:href="#mf7f20e4edf" x="24.954545" y="134.209495" style="fill: #0000ff; stroke: #0000ff"/>
     <use xlink:href="#mf7f20e4edf" x="42.264699" y="104.971351" style="fill: #0000ff; stroke: #0000ff"/>
     <use xlink:href="#mf7f20e4edf" x="29.815167" y="157.127525" style="fill: #0000ff; stroke: #0000ff"/>
     <use xlink:href="#mf7f20e4edf" x="51.674329" y="90.428254" style="fill: #0000ff; stroke: #0000ff"/>
     <use xlink:href="#mf7f20e4edf" x="32.621244" y="122.28314" style="fill: #0000ff; stroke: #0000ff"/>
    </g>
   </g>
   <g id="PathCollection_7">
    <defs>
     <path id="m6a7fd25f71" d="M 0 0.707107 
C 0.187527 0.707107 0.367398 0.632602 0.5 0.5 
C 0.632602 0.367398 0.707107 0.187527 0.707107 0 
C 0.707107 -0.187527 0.632602 -0.367398 0.5 -0.5 
C 0.367398 -0.632602 0.187527 -0.707107 0 -0.707107 
C -0.187527 -0.707107 -0.367398 -0.632602 -0.5 -0.5 
C -0.632602 -0.367398 -0.707107 -0.187527 -0.707107 0 
C -0.707107 0.187527 -0.632602 0.367398 -0.5 0.5 
C -0.367398 0.632602 -0.187527 0.707107 0 0.707107 
z
" style="stroke: #ff0000"/>
    </defs>
    <g clip-path="url(#p88ee972c22)">
     <use xlink:href="#m6a7fd25f71" x="75.8054" y="174.204246" style="fill: #ff0000; stroke: #ff0000"/>
     <use xlink:href="#m6a7fd25f71" x="96.586617" y="189.074395" style="fill: #ff0000; stroke: #ff0000"/>
     <use xlink:href="#m6a7fd25f71" x="71.337781" y="109.89066" style="fill: #ff0000; stroke: #ff0000"/>
     <use xlink:href="#m6a7fd25f71" x="102.900598" y="106.448451" style="fill: #ff0000; stroke: #ff0000"/>
     <use xlink:href="#m6a7fd25f71" x="68.176866" y="128.440351" style="fill: #ff0000; stroke: #ff0000"/>
     <use xlink:href="#m6a7fd25f71" x="67.197002" y="124.104295" style="fill: #ff0000; stroke: #ff0000"/>
     <use xlink:href="#m6a7fd25f71" x="63.583044" y="184.269311" style="fill: #ff0000; stroke: #ff0000"/>
     <use xlink:href="#m6a7fd25f71" x="65.160563" y="157.260346" style="fill: #ff0000; stroke: #ff0000"/>
     <use xlink:href="#m6a7fd25f71" x="67.597091" y="101.022334" style="fill: #ff0000; stroke: #ff0000"/>
     <use xlink:href="#m6a7fd25f71" x="71.821414" y="106.467102" style="fill: #ff0000; stroke: #ff0000"/>
    </g>
   </g>
   <g id="PathCollection_8">
    <defs>
     <path id="m95361b54c2" d="M 0 0.707107 
C 0.187527 0.707107 0.367398 0.632602 0.5 0.5 
C 0.632602 0.367398 0.707107 0.187527 0.707107 0 
C 0.707107 -0.187527 0.632602 -0.367398 0.5 -0.5 
C 0.367398 -0.632602 0.187527 -0.707107 0 -0.707107 
C -0.187527 -0.707107 -0.367398 -0.632602 -0.5 -0.5 
C -0.632602 -0.367398 -0.707107 -0.187527 -0.707107 0 
C -0.707107 0.187527 -0.632602 0.367398 -0.5 0.5 
C -0.367398 0.632602 -0.187527 0.707107 0 0.707107 
z
" style="stroke: #ffc0cb"/>
    </defs>
    <g clip-path="url(#p88ee972c22)">
     <use xlink:href="#m95361b54c2" x="78.155576" y="223.785835" style="fill: #ffc0cb; stroke: #ffc0cb"/>
     <use xlink:href="#m95361b54c2" x="123.218957" y="251.96856" style="fill: #ffc0cb; stroke: #ffc0cb"/>
     <use xlink:href="#m95361b54c2" x="64.636868" y="209.25684" style="fill: #ffc0cb; stroke: #ffc0cb"/>
     <use xlink:href="#m95361b54c2" x="233.858305" y="286.918125" style="fill: #ffc0cb; stroke: #ffc0cb"/>
     <use xlink:href="#m95361b54c2" x="59.408762" y="199.772434" style="fill: #ffc0cb; stroke: #ffc0cb"/>
     <use xlink:href="#m95361b54c2" x="52.028538" y="197.358778" style="fill: #ffc0cb; stroke: #ffc0cb"/>
     <use xlink:href="#m95361b54c2" x="195.700947" y="276.260448" style="fill: #ffc0cb; stroke: #ffc0cb"/>
     <use xlink:href="#m95361b54c2" x="59.40756" y="192.261974" style="fill: #ffc0cb; stroke: #ffc0cb"/>
     <use xlink:href="#m95361b54c2" x="73.75504" y="57.566182" style="fill: #ffc0cb; stroke: #ffc0cb"/>
     <use xlink:href="#m95361b54c2" x="156.190478" y="275.285528" style="fill: #ffc0cb; stroke: #ffc0cb"/>
    </g>
   </g>
   <g id="PathCollection_9">
    <defs>
     <path id="m5a272dfa33" d="M -0 1.414214 
L 1.414214 -1.414214 
L -1.414214 -1.414214 
z
" style="stroke: #000000"/>
    </defs>
    <g clip-path="url(#p88ee972c22)">
     <use xlink:href="#m5a272dfa33" x="273.877471" y="155.119722" style="stroke: #000000"/>
     <use xlink:href="#m5a272dfa33" x="272.922213" y="172.830079" style="stroke: #000000"/>
     <use xlink:href="#m5a272dfa33" x="284.498425" y="161.496984" style="stroke: #000000"/>
     <use xlink:href="#m5a272dfa33" x="193.646183" y="130.865676" style="stroke: #000000"/>
     <use xlink:href="#m5a272dfa33" x="190.946209" y="131.08878" style="stroke: #000000"/>
     <use xlink:href="#m5a272dfa33" x="207.997645" y="105.328028" style="stroke: #000000"/>
     <use xlink:href="#m5a272dfa33" x="175.874649" y="106.727275" style="stroke: #000000"/>
     <use xlink:href="#m5a272dfa33" x="174.701407" y="132.607449" style="stroke: #000000"/>
     <use xlink:href="#m5a272dfa33" x="214.070552" y="139.922688" style="stroke: #000000"/>
     <use xlink:href="#m5a272dfa33" x="188.174434" y="153.947795" style="stroke: #000000"/>
    </g>
   </g>
   <g id="PathCollection_10">
    <defs>
     <path id="m32df978be6" d="M -0 1.414214 
L 1.414214 -1.414214 
L -1.414214 -1.414214 
z
" style="stroke: #0000ff"/>
    </defs>
    <g clip-path="url(#p88ee972c22)">
     <use xlink:href="#m32df978be6" x="164.157389" y="172.452013" style="fill: #0000ff; stroke: #0000ff"/>
     <use xlink:href="#m32df978be6" x="212.193082" y="208.168915" style="fill: #0000ff; stroke: #0000ff"/>
     <use xlink:href="#m32df978be6" x="266.315494" y="250.115358" style="fill: #0000ff; stroke: #0000ff"/>
     <use xlink:href="#m32df978be6" x="270.556136" y="252.302749" style="fill: #0000ff; stroke: #0000ff"/>
     <use xlink:href="#m32df978be6" x="100.161017" y="142.077114" style="fill: #0000ff; stroke: #0000ff"/>
     <use xlink:href="#m32df978be6" x="92.125299" y="201.268596" style="fill: #0000ff; stroke: #0000ff"/>
     <use xlink:href="#m32df978be6" x="101.691788" y="223.368507" style="fill: #0000ff; stroke: #0000ff"/>
     <use xlink:href="#m32df978be6" x="97.587723" y="145.704173" style="fill: #0000ff; stroke: #0000ff"/>
     <use xlink:href="#m32df978be6" x="138.810109" y="58.107475" style="fill: #0000ff; stroke: #0000ff"/>
     <use xlink:href="#m32df978be6" x="58.443728" y="172.742487" style="fill: #0000ff; stroke: #0000ff"/>
    </g>
   </g>
   <g id="PathCollection_11">
    <defs>
     <path id="m116478ad2f" d="M -0 1.414214 
L 1.414214 -1.414214 
L -1.414214 -1.414214 
z
" style="stroke: #ff0000"/>
    </defs>
    <g clip-path="url(#p88ee972c22)">
     <use xlink:href="#m116478ad2f" x="125.704107" y="219.969314" style="fill: #ff0000; stroke: #ff0000"/>
     <use xlink:href="#m116478ad2f" x="114.489901" y="211.00109" style="fill: #ff0000; stroke: #ff0000"/>
     <use xlink:href="#m116478ad2f" x="113.166617" y="212.475963" style="fill: #ff0000; stroke: #ff0000"/>
     <use xlink:href="#m116478ad2f" x="126.882325" y="239.22591" style="fill: #ff0000; stroke: #ff0000"/>
     <use xlink:href="#m116478ad2f" x="116.429461" y="236.190152" style="fill: #ff0000; stroke: #ff0000"/>
     <use xlink:href="#m116478ad2f" x="119.300903" y="215.933538" style="fill: #ff0000; stroke: #ff0000"/>
     <use xlink:href="#m116478ad2f" x="137.2128" y="238.135276" style="fill: #ff0000; stroke: #ff0000"/>
     <use xlink:href="#m116478ad2f" x="142.118658" y="244.81583" style="fill: #ff0000; stroke: #ff0000"/>
     <use xlink:href="#m116478ad2f" x="132.923614" y="244.879268" style="fill: #ff0000; stroke: #ff0000"/>
     <use xlink:href="#m116478ad2f" x="138.789278" y="230.05487" style="fill: #ff0000; stroke: #ff0000"/>
    </g>
   </g>
   <g id="PathCollection_12">
    <defs>
     <path id="m374611dc69" d="M -0 1.414214 
L 1.414214 -1.414214 
L -1.414214 -1.414214 
z
" style="stroke: #ffc0cb"/>
    </defs>
    <g clip-path="url(#p88ee972c22)">
     <use xlink:href="#m374611dc69" x="115.464298" y="118.181109" style="fill: #ffc0cb; stroke: #ffc0cb"/>
     <use xlink:href="#m374611dc69" x="272.372571" y="103.893899" style="fill: #ffc0cb; stroke: #ffc0cb"/>
     <use xlink:href="#m374611dc69" x="250.380964" y="93.060929" style="fill: #ffc0cb; stroke: #ffc0cb"/>
     <use xlink:href="#m374611dc69" x="260.176906" y="190.896996" style="fill: #ffc0cb; stroke: #ffc0cb"/>
     <use xlink:href="#m374611dc69" x="275.610668" y="114.878048" style="fill: #ffc0cb; stroke: #ffc0cb"/>
     <use xlink:href="#m374611dc69" x="112.040485" y="92.701585" style="fill: #ffc0cb; stroke: #ffc0cb"/>
     <use xlink:href="#m374611dc69" x="274.356892" y="136.284355" style="fill: #ffc0cb; stroke: #ffc0cb"/>
     <use xlink:href="#m374611dc69" x="98.465175" y="168.829064" style="fill: #ffc0cb; stroke: #ffc0cb"/>
     <use xlink:href="#m374611dc69" x="116.425608" y="153.243387" style="fill: #ffc0cb; stroke: #ffc0cb"/>
     <use xlink:href="#m374611dc69" x="116.41757" y="122.159998" style="fill: #ffc0cb; stroke: #ffc0cb"/>
    </g>
   </g>
   <g id="PathCollection_13">
    <defs>
     <path id="mccb82b328e" d="M 0 -1.414214 
L -1.414214 1.414214 
L 1.414214 1.414214 
z
" style="stroke: #000000"/>
    </defs>
    <g clip-path="url(#p88ee972c22)">
     <use xlink:href="#mccb82b328e" x="222.712134" y="148.087675" style="stroke: #000000"/>
     <use xlink:href="#mccb82b328e" x="230.123303" y="165.59265" style="stroke: #000000"/>
     <use xlink:href="#mccb82b328e" x="155.711904" y="117.246361" style="stroke: #000000"/>
     <use xlink:href="#mccb82b328e" x="191.208012" y="106.988996" style="stroke: #000000"/>
     <use xlink:href="#mccb82b328e" x="161.474456" y="141.520985" style="stroke: #000000"/>
     <use xlink:href="#mccb82b328e" x="174.07576" y="197.329932" style="stroke: #000000"/>
     <use xlink:href="#mccb82b328e" x="192.458544" y="72.995183" style="stroke: #000000"/>
     <use xlink:href="#mccb82b328e" x="181.671883" y="94.391747" style="stroke: #000000"/>
     <use xlink:href="#mccb82b328e" x="164.762368" y="149.915817" style="stroke: #000000"/>
     <use xlink:href="#mccb82b328e" x="161.458795" y="132.294839" style="stroke: #000000"/>
    </g>
   </g>
   <g id="PathCollection_14">
    <defs>
     <path id="m0147eb3d08" d="M 0 -1.414214 
L -1.414214 1.414214 
L 1.414214 1.414214 
z
" style="stroke: #0000ff"/>
    </defs>
    <g clip-path="url(#p88ee972c22)">
     <use xlink:href="#m0147eb3d08" x="191.061507" y="194.930276" style="fill: #0000ff; stroke: #0000ff"/>
     <use xlink:href="#m0147eb3d08" x="228.395602" y="215.628563" style="fill: #0000ff; stroke: #0000ff"/>
     <use xlink:href="#m0147eb3d08" x="226.098134" y="218.901719" style="fill: #0000ff; stroke: #0000ff"/>
     <use xlink:href="#m0147eb3d08" x="156.608339" y="166.552721" style="fill: #0000ff; stroke: #0000ff"/>
     <use xlink:href="#m0147eb3d08" x="194.293766" y="186.442609" style="fill: #0000ff; stroke: #0000ff"/>
     <use xlink:href="#m0147eb3d08" x="226.676907" y="222.656905" style="fill: #0000ff; stroke: #0000ff"/>
     <use xlink:href="#m0147eb3d08" x="210.870578" y="131.028976" style="fill: #0000ff; stroke: #0000ff"/>
     <use xlink:href="#m0147eb3d08" x="203.159785" y="176.501342" style="fill: #0000ff; stroke: #0000ff"/>
     <use xlink:href="#m0147eb3d08" x="235.028128" y="226.548666" style="fill: #0000ff; stroke: #0000ff"/>
     <use xlink:href="#m0147eb3d08" x="209.153319" y="186.75153" style="fill: #0000ff; stroke: #0000ff"/>
    </g>
   </g>
   <g id="PathCollection_15">
    <defs>
     <path id="m99d8d814d8" d="M 0 -1.414214 
L -1.414214 1.414214 
L 1.414214 1.414214 
z
" style="stroke: #ff0000"/>
    </defs>
    <g clip-path="url(#p88ee972c22)">
     <use xlink:href="#m99d8d814d8" x="154.167106" y="209.258541" style="fill: #ff0000; stroke: #ff0000"/>
     <use xlink:href="#m99d8d814d8" x="183.006383" y="147.953813" style="fill: #ff0000; stroke: #ff0000"/>
     <use xlink:href="#m99d8d814d8" x="152.544673" y="186.888786" style="fill: #ff0000; stroke: #ff0000"/>
     <use xlink:href="#m99d8d814d8" x="168.330693" y="183.0008" style="fill: #ff0000; stroke: #ff0000"/>
     <use xlink:href="#m99d8d814d8" x="201.760268" y="147.447757" style="fill: #ff0000; stroke: #ff0000"/>
     <use xlink:href="#m99d8d814d8" x="151.682215" y="195.159027" style="fill: #ff0000; stroke: #ff0000"/>
     <use xlink:href="#m99d8d814d8" x="202.772216" y="161.406033" style="fill: #ff0000; stroke: #ff0000"/>
     <use xlink:href="#m99d8d814d8" x="193.967533" y="171.252683" style="fill: #ff0000; stroke: #ff0000"/>
     <use xlink:href="#m99d8d814d8" x="207.687093" y="152.004164" style="fill: #ff0000; stroke: #ff0000"/>
     <use xlink:href="#m99d8d814d8" x="204.740259" y="155.11664" style="fill: #ff0000; stroke: #ff0000"/>
    </g>
   </g>
   <g id="PathCollection_16">
    <defs>
     <path id="mdaa5390586" d="M 0 -1.414214 
L -1.414214 1.414214 
L 1.414214 1.414214 
z
" style="stroke: #ffc0cb"/>
    </defs>
    <g clip-path="url(#p88ee972c22)">
     <use xlink:href="#mdaa5390586" x="233.981117" y="244.587526" style="fill: #ffc0cb; stroke: #ffc0cb"/>
     <use xlink:href="#mdaa5390586" x="109.045457" y="146.745666" style="fill: #ffc0cb; stroke: #ffc0cb"/>
     <use xlink:href="#mdaa5390586" x="114.48121" y="142.890126" style="fill: #ffc0cb; stroke: #ffc0cb"/>
     <use xlink:href="#mdaa5390586" x="62.309599" y="163.584782" style="fill: #ffc0cb; stroke: #ffc0cb"/>
     <use xlink:href="#mdaa5390586" x="63.100366" y="168.864432" style="fill: #ffc0cb; stroke: #ffc0cb"/>
     <use xlink:href="#mdaa5390586" x="160.584178" y="237.962522" style="fill: #ffc0cb; stroke: #ffc0cb"/>
     <use xlink:href="#mdaa5390586" x="105.182742" y="209.496229" style="fill: #ffc0cb; stroke: #ffc0cb"/>
     <use xlink:href="#mdaa5390586" x="119.308213" y="90.402839" style="fill: #ffc0cb; stroke: #ffc0cb"/>
     <use xlink:href="#mdaa5390586" x="93.105125" y="142.028109" style="fill: #ffc0cb; stroke: #ffc0cb"/>
     <use xlink:href="#mdaa5390586" x="113.406464" y="146.04466" style="fill: #ffc0cb; stroke: #ffc0cb"/>
    </g>
   </g>
   <g id="PathCollection_17">
    <defs>
     <path id="m638e6a59bf" d="M 1.414214 0 
L -1.414214 -1.414214 
L -1.414214 1.414214 
z
" style="stroke: #000000"/>
    </defs>
    <g clip-path="url(#p88ee972c22)">
     <use xlink:href="#m638e6a59bf" x="196.011947" y="90.781571" style="stroke: #000000"/>
     <use xlink:href="#m638e6a59bf" x="206.159811" y="90.731518" style="stroke: #000000"/>
     <use xlink:href="#m638e6a59bf" x="241.379774" y="200.686002" style="stroke: #000000"/>
     <use xlink:href="#m638e6a59bf" x="249.748505" y="214.862612" style="stroke: #000000"/>
     <use xlink:href="#m638e6a59bf" x="149.270731" y="104.106664" style="stroke: #000000"/>
     <use xlink:href="#m638e6a59bf" x="163.183161" y="51.150029" style="stroke: #000000"/>
     <use xlink:href="#m638e6a59bf" x="165.875098" y="45.26416" style="stroke: #000000"/>
     <use xlink:href="#m638e6a59bf" x="122.546903" y="103.441475" style="stroke: #000000"/>
     <use xlink:href="#m638e6a59bf" x="168.181466" y="56.223392" style="stroke: #000000"/>
     <use xlink:href="#m638e6a59bf" x="204.095193" y="34.918125" style="stroke: #000000"/>
    </g>
   </g>
   <g id="PathCollection_18">
    <defs>
     <path id="mc5d1c9ab4f" d="M 1.414214 0 
L -1.414214 -1.414214 
L -1.414214 1.414214 
z
" style="stroke: #0000ff"/>
    </defs>
    <g clip-path="url(#p88ee972c22)">
     <use xlink:href="#mc5d1c9ab4f" x="84.631681" y="179.695018" style="fill: #0000ff; stroke: #0000ff"/>
     <use xlink:href="#mc5d1c9ab4f" x="132.285869" y="168.777261" style="fill: #0000ff; stroke: #0000ff"/>
     <use xlink:href="#mc5d1c9ab4f" x="134.073293" y="126.325403" style="fill: #0000ff; stroke: #0000ff"/>
     <use xlink:href="#mc5d1c9ab4f" x="165.964958" y="165.168932" style="fill: #0000ff; stroke: #0000ff"/>
     <use xlink:href="#mc5d1c9ab4f" x="140.388511" y="143.276323" style="fill: #0000ff; stroke: #0000ff"/>
     <use xlink:href="#mc5d1c9ab4f" x="104.741519" y="130.258129" style="fill: #0000ff; stroke: #0000ff"/>
     <use xlink:href="#mc5d1c9ab4f" x="89.314518" y="160.93565" style="fill: #0000ff; stroke: #0000ff"/>
     <use xlink:href="#mc5d1c9ab4f" x="134.708635" y="139.963534" style="fill: #0000ff; stroke: #0000ff"/>
     <use xlink:href="#mc5d1c9ab4f" x="90.464494" y="151.43455" style="fill: #0000ff; stroke: #0000ff"/>
     <use xlink:href="#mc5d1c9ab4f" x="93.817632" y="121.014768" style="fill: #0000ff; stroke: #0000ff"/>
    </g>
   </g>
   <g id="PathCollection_19">
    <defs>
     <path id="m843f49b033" d="M 1.414214 0 
L -1.414214 -1.414214 
L -1.414214 1.414214 
z
" style="stroke: #ff0000"/>
    </defs>
    <g clip-path="url(#p88ee972c22)">
     <use xlink:href="#m843f49b033" x="121.024161" y="167.716251" style="fill: #ff0000; stroke: #ff0000"/>
     <use xlink:href="#m843f49b033" x="204.716777" y="117.827889" style="fill: #ff0000; stroke: #ff0000"/>
     <use xlink:href="#m843f49b033" x="125.463064" y="185.557399" style="fill: #ff0000; stroke: #ff0000"/>
     <use xlink:href="#m843f49b033" x="120.598494" y="198.645764" style="fill: #ff0000; stroke: #ff0000"/>
     <use xlink:href="#m843f49b033" x="118.864086" y="201.547699" style="fill: #ff0000; stroke: #ff0000"/>
     <use xlink:href="#m843f49b033" x="142.570229" y="205.76567" style="fill: #ff0000; stroke: #ff0000"/>
     <use xlink:href="#m843f49b033" x="114.309106" y="197.455327" style="fill: #ff0000; stroke: #ff0000"/>
     <use xlink:href="#m843f49b033" x="113.269954" y="200.301723" style="fill: #ff0000; stroke: #ff0000"/>
     <use xlink:href="#m843f49b033" x="119.593017" y="204.194256" style="fill: #ff0000; stroke: #ff0000"/>
     <use xlink:href="#m843f49b033" x="131.407541" y="189.056938" style="fill: #ff0000; stroke: #ff0000"/>
    </g>
   </g>
   <g id="PathCollection_20">
    <defs>
     <path id="mdeea56d346" d="M 1.414214 0 
L -1.414214 -1.414214 
L -1.414214 1.414214 
z
" style="stroke: #ffc0cb"/>
    </defs>
    <g clip-path="url(#p88ee972c22)">
     <use xlink:href="#mdeea56d346" x="282.455262" y="207.576196" style="fill: #ffc0cb; stroke: #ffc0cb"/>
     <use xlink:href="#mdeea56d346" x="279.496369" y="195.563148" style="fill: #ffc0cb; stroke: #ffc0cb"/>
     <use xlink:href="#mdeea56d346" x="282.215938" y="182.176214" style="fill: #ffc0cb; stroke: #ffc0cb"/>
     <use xlink:href="#mdeea56d346" x="225.308092" y="121.190844" style="fill: #ffc0cb; stroke: #ffc0cb"/>
     <use xlink:href="#mdeea56d346" x="122.855067" y="108.039825" style="fill: #ffc0cb; stroke: #ffc0cb"/>
     <use xlink:href="#mdeea56d346" x="229.527975" y="109.927382" style="fill: #ffc0cb; stroke: #ffc0cb"/>
     <use xlink:href="#mdeea56d346" x="128.565624" y="100.027521" style="fill: #ffc0cb; stroke: #ffc0cb"/>
     <use xlink:href="#mdeea56d346" x="166.920312" y="81.420565" style="fill: #ffc0cb; stroke: #ffc0cb"/>
     <use xlink:href="#mdeea56d346" x="125.058551" y="90.457536" style="fill: #ffc0cb; stroke: #ffc0cb"/>
     <use xlink:href="#mdeea56d346" x="297.657136" y="198.370869" style="fill: #ffc0cb; stroke: #ffc0cb"/>
    </g>
   </g>
   <g id="PathCollection_21">
    <defs>
     <path id="mf420550a40" d="M -1.414214 -0 
L 1.414214 1.414214 
L 1.414214 -1.414214 
z
" style="stroke: #000000"/>
    </defs>
    <g clip-path="url(#p88ee972c22)">
     <use xlink:href="#mf420550a40" x="292.886341" y="149.864719" style="stroke: #000000"/>
     <use xlink:href="#mf420550a40" x="291.802899" y="127.771631" style="stroke: #000000"/>
     <use xlink:href="#mf420550a40" x="283.879682" y="135.405651" style="stroke: #000000"/>
     <use xlink:href="#mf420550a40" x="241.283024" y="128.587531" style="stroke: #000000"/>
     <use xlink:href="#mf420550a40" x="238.817392" y="143.034571" style="stroke: #000000"/>
     <use xlink:href="#mf420550a40" x="229.182327" y="145.108757" style="stroke: #000000"/>
     <use xlink:href="#mf420550a40" x="225.645721" y="96.542549" style="stroke: #000000"/>
     <use xlink:href="#mf420550a40" x="250.964499" y="88.622302" style="stroke: #000000"/>
     <use xlink:href="#mf420550a40" x="249.382655" y="145.211494" style="stroke: #000000"/>
     <use xlink:href="#mf420550a40" x="239.658077" y="96.813384" style="stroke: #000000"/>
    </g>
   </g>
   <g id="PathCollection_22">
    <defs>
     <path id="m8b4f74dd25" d="M -1.414214 -0 
L 1.414214 1.414214 
L 1.414214 -1.414214 
z
" style="stroke: #0000ff"/>
    </defs>
    <g clip-path="url(#p88ee972c22)">
     <use xlink:href="#m8b4f74dd25" x="375.406809" y="150.501878" style="fill: #0000ff; stroke: #0000ff"/>
     <use xlink:href="#m8b4f74dd25" x="361.118412" y="145.804276" style="fill: #0000ff; stroke: #0000ff"/>
     <use xlink:href="#m8b4f74dd25" x="364.367286" y="163.373716" style="fill: #0000ff; stroke: #0000ff"/>
     <use xlink:href="#m8b4f74dd25" x="362.472501" y="144.33896" style="fill: #0000ff; stroke: #0000ff"/>
     <use xlink:href="#m8b4f74dd25" x="364.767252" y="154.395573" style="fill: #0000ff; stroke: #0000ff"/>
     <use xlink:href="#m8b4f74dd25" x="380.045455" y="121.282121" style="fill: #0000ff; stroke: #0000ff"/>
     <use xlink:href="#m8b4f74dd25" x="373.07227" y="161.390581" style="fill: #0000ff; stroke: #0000ff"/>
     <use xlink:href="#m8b4f74dd25" x="362.71695" y="166.571324" style="fill: #0000ff; stroke: #0000ff"/>
     <use xlink:href="#m8b4f74dd25" x="363.133348" y="159.567634" style="fill: #0000ff; stroke: #0000ff"/>
     <use xlink:href="#m8b4f74dd25" x="362.97113" y="153.270147" style="fill: #0000ff; stroke: #0000ff"/>
    </g>
   </g>
   <g id="PathCollection_23">
    <defs>
     <path id="m56f6ddd86b" d="M -1.414214 -0 
L 1.414214 1.414214 
L 1.414214 -1.414214 
z
" style="stroke: #ff0000"/>
    </defs>
    <g clip-path="url(#p88ee972c22)">
     <use xlink:href="#m56f6ddd86b" x="127.065064" y="155.922174" style="fill: #ff0000; stroke: #ff0000"/>
     <use xlink:href="#m56f6ddd86b" x="133.900673" y="180.743879" style="fill: #ff0000; stroke: #ff0000"/>
     <use xlink:href="#m56f6ddd86b" x="213.659419" y="168.110661" style="fill: #ff0000; stroke: #ff0000"/>
     <use xlink:href="#m56f6ddd86b" x="159.406062" y="136.640334" style="fill: #ff0000; stroke: #ff0000"/>
     <use xlink:href="#m56f6ddd86b" x="219.277299" y="175.269121" style="fill: #ff0000; stroke: #ff0000"/>
     <use xlink:href="#m56f6ddd86b" x="165.767971" y="131.080407" style="fill: #ff0000; stroke: #ff0000"/>
     <use xlink:href="#m56f6ddd86b" x="194.561826" y="157.81758" style="fill: #ff0000; stroke: #ff0000"/>
     <use xlink:href="#m56f6ddd86b" x="141.501781" y="173.704895" style="fill: #ff0000; stroke: #ff0000"/>
     <use xlink:href="#m56f6ddd86b" x="111.435684" y="98.093498" style="fill: #ff0000; stroke: #ff0000"/>
     <use xlink:href="#m56f6ddd86b" x="122.315182" y="112.924803" style="fill: #ff0000; stroke: #ff0000"/>
    </g>
   </g>
   <g id="PathCollection_24">
    <defs>
     <path id="m86c55a69a6" d="M -1.414214 -0 
L 1.414214 1.414214 
L 1.414214 -1.414214 
z
" style="stroke: #ffc0cb"/>
    </defs>
    <g clip-path="url(#p88ee972c22)">
     <use xlink:href="#m86c55a69a6" x="173.05902" y="123.636842" style="fill: #ffc0cb; stroke: #ffc0cb"/>
     <use xlink:href="#m86c55a69a6" x="205.597048" y="112.749689" style="fill: #ffc0cb; stroke: #ffc0cb"/>
     <use xlink:href="#m86c55a69a6" x="260.205293" y="45.987276" style="fill: #ffc0cb; stroke: #ffc0cb"/>
     <use xlink:href="#m86c55a69a6" x="237.334215" y="63.625873" style="fill: #ffc0cb; stroke: #ffc0cb"/>
     <use xlink:href="#m86c55a69a6" x="255.368462" y="224.768013" style="fill: #ffc0cb; stroke: #ffc0cb"/>
     <use xlink:href="#m86c55a69a6" x="213.967925" y="86.637372" style="fill: #ffc0cb; stroke: #ffc0cb"/>
     <use xlink:href="#m86c55a69a6" x="201.721615" y="103.051449" style="fill: #ffc0cb; stroke: #ffc0cb"/>
     <use xlink:href="#m86c55a69a6" x="192.715649" y="96.714471" style="fill: #ffc0cb; stroke: #ffc0cb"/>
     <use xlink:href="#m86c55a69a6" x="245.925326" y="59.400292" style="fill: #ffc0cb; stroke: #ffc0cb"/>
     <use xlink:href="#m86c55a69a6" x="249.057295" y="58.357343" style="fill: #ffc0cb; stroke: #ffc0cb"/>
    </g>
   </g>
   <g id="PathCollection_25">
    <defs>
     <path id="m5dcd573dd1" d="M -0 2 
L 1.2 0 
L 0 -2 
L -1.2 -0 
z
" style="stroke: #000000"/>
    </defs>
    <g clip-path="url(#p88ee972c22)">
     <use xlink:href="#m5dcd573dd1" x="178.901953" y="176.404137" style="stroke: #000000"/>
     <use xlink:href="#m5dcd573dd1" x="249.634194" y="218.370249" style="stroke: #000000"/>
     <use xlink:href="#m5dcd573dd1" x="176.301995" y="171.316748" style="stroke: #000000"/>
     <use xlink:href="#m5dcd573dd1" x="196.13061" y="180.61862" style="stroke: #000000"/>
     <use xlink:href="#m5dcd573dd1" x="202.815308" y="153.633364" style="stroke: #000000"/>
     <use xlink:href="#m5dcd573dd1" x="216.044163" y="198.520745" style="stroke: #000000"/>
     <use xlink:href="#m5dcd573dd1" x="175.078835" y="162.642051" style="stroke: #000000"/>
     <use xlink:href="#m5dcd573dd1" x="162.565964" y="109.905321" style="stroke: #000000"/>
     <use xlink:href="#m5dcd573dd1" x="218.09145" y="185.866852" style="stroke: #000000"/>
     <use xlink:href="#m5dcd573dd1" x="189.881989" y="189.739647" style="stroke: #000000"/>
    </g>
   </g>
   <g id="PathCollection_26">
    <defs>
     <path id="m6b5f9f57e4" d="M -0 2 
L 1.2 0 
L 0 -2 
L -1.2 -0 
z
" style="stroke: #0000ff"/>
    </defs>
    <g clip-path="url(#p88ee972c22)">
     <use xlink:href="#m6b5f9f57e4" x="281.2049" y="190.124216" style="fill: #0000ff; stroke: #0000ff"/>
     <use xlink:href="#m6b5f9f57e4" x="243.363265" y="114.535505" style="fill: #0000ff; stroke: #0000ff"/>
     <use xlink:href="#m6b5f9f57e4" x="232.926631" y="187.738973" style="fill: #0000ff; stroke: #0000ff"/>
     <use xlink:href="#m6b5f9f57e4" x="290.032323" y="205.367862" style="fill: #0000ff; stroke: #0000ff"/>
     <use xlink:href="#m6b5f9f57e4" x="275.032006" y="210.397907" style="fill: #0000ff; stroke: #0000ff"/>
     <use xlink:href="#m6b5f9f57e4" x="240.462644" y="94.021363" style="fill: #0000ff; stroke: #0000ff"/>
     <use xlink:href="#m6b5f9f57e4" x="110.026078" y="157.124044" style="fill: #0000ff; stroke: #0000ff"/>
     <use xlink:href="#m6b5f9f57e4" x="244.833066" y="208.008152" style="fill: #0000ff; stroke: #0000ff"/>
     <use xlink:href="#m6b5f9f57e4" x="223.671988" y="155.105721" style="fill: #0000ff; stroke: #0000ff"/>
     <use xlink:href="#m6b5f9f57e4" x="223.698474" y="205.560259" style="fill: #0000ff; stroke: #0000ff"/>
    </g>
   </g>
   <g id="PathCollection_27">
    <defs>
     <path id="m5b8e3f0ec0" d="M -0 2 
L 1.2 0 
L 0 -2 
L -1.2 -0 
z
" style="stroke: #ff0000"/>
    </defs>
    <g clip-path="url(#p88ee972c22)">
     <use xlink:href="#m5b8e3f0ec0" x="174.195631" y="208.032099" style="fill: #ff0000; stroke: #ff0000"/>
     <use xlink:href="#m5b8e3f0ec0" x="194.319627" y="218.263362" style="fill: #ff0000; stroke: #ff0000"/>
     <use xlink:href="#m5b8e3f0ec0" x="163.903922" y="203.845222" style="fill: #ff0000; stroke: #ff0000"/>
     <use xlink:href="#m5b8e3f0ec0" x="176.161777" y="213.308248" style="fill: #ff0000; stroke: #ff0000"/>
     <use xlink:href="#m5b8e3f0ec0" x="179.34328" y="226.0571" style="fill: #ff0000; stroke: #ff0000"/>
     <use xlink:href="#m5b8e3f0ec0" x="210.584388" y="227.32559" style="fill: #ff0000; stroke: #ff0000"/>
     <use xlink:href="#m5b8e3f0ec0" x="178.801631" y="205.013123" style="fill: #ff0000; stroke: #ff0000"/>
     <use xlink:href="#m5b8e3f0ec0" x="169.586433" y="209.757501" style="fill: #ff0000; stroke: #ff0000"/>
     <use xlink:href="#m5b8e3f0ec0" x="218.967803" y="235.76049" style="fill: #ff0000; stroke: #ff0000"/>
     <use xlink:href="#m5b8e3f0ec0" x="159.231956" y="200.795682" style="fill: #ff0000; stroke: #ff0000"/>
    </g>
   </g>
   <g id="PathCollection_28">
    <defs>
     <path id="m618c88404b" d="M -0 2 
L 1.2 0 
L 0 -2 
L -1.2 -0 
z
" style="stroke: #ffc0cb"/>
    </defs>
    <g clip-path="url(#p88ee972c22)">
     <use xlink:href="#m618c88404b" x="169.365329" y="198.360556" style="fill: #ffc0cb; stroke: #ffc0cb"/>
     <use xlink:href="#m618c88404b" x="238.132216" y="240.538856" style="fill: #ffc0cb; stroke: #ffc0cb"/>
     <use xlink:href="#m618c88404b" x="112.658476" y="160.397972" style="fill: #ffc0cb; stroke: #ffc0cb"/>
     <use xlink:href="#m618c88404b" x="138.571233" y="224.330665" style="fill: #ffc0cb; stroke: #ffc0cb"/>
     <use xlink:href="#m618c88404b" x="211.485" y="241.061143" style="fill: #ffc0cb; stroke: #ffc0cb"/>
     <use xlink:href="#m618c88404b" x="187.254013" y="210.889629" style="fill: #ffc0cb; stroke: #ffc0cb"/>
     <use xlink:href="#m618c88404b" x="214.898436" y="239.194976" style="fill: #ffc0cb; stroke: #ffc0cb"/>
     <use xlink:href="#m618c88404b" x="205.809278" y="231.912732" style="fill: #ffc0cb; stroke: #ffc0cb"/>
     <use xlink:href="#m618c88404b" x="256.482821" y="237.207233" style="fill: #ffc0cb; stroke: #ffc0cb"/>
     <use xlink:href="#m618c88404b" x="136.952919" y="83.632831" style="fill: #ffc0cb; stroke: #ffc0cb"/>
    </g>
   </g>
   <g id="PathCollection_29">
    <defs>
     <path id="m7e81604c87" d="M 0 -1.414214 
L -0.317511 -0.437016 
L -1.344997 -0.437016 
L -0.513743 0.166925 
L -0.831254 1.144123 
L -0 0.540181 
L 0.831254 1.144123 
L 0.513743 0.166925 
L 1.344997 -0.437016 
L 0.317511 -0.437016 
z
" style="stroke: #000000"/>
    </defs>
    <g clip-path="url(#p88ee972c22)">
     <use xlink:href="#m7e81604c87" x="329.902221" y="135.603344" style="stroke: #000000"/>
     <use xlink:href="#m7e81604c87" x="340.494677" y="151.671441" style="stroke: #000000"/>
     <use xlink:href="#m7e81604c87" x="329.089609" y="114.685013" style="stroke: #000000"/>
     <use xlink:href="#m7e81604c87" x="287.97503" y="110.724577" style="stroke: #000000"/>
     <use xlink:href="#m7e81604c87" x="252.152051" y="82.390203" style="stroke: #000000"/>
     <use xlink:href="#m7e81604c87" x="252.626752" y="100.259177" style="stroke: #000000"/>
     <use xlink:href="#m7e81604c87" x="257.770007" y="113.774122" style="stroke: #000000"/>
     <use xlink:href="#m7e81604c87" x="259.013402" y="69.904591" style="stroke: #000000"/>
     <use xlink:href="#m7e81604c87" x="330.304594" y="120.721479" style="stroke: #000000"/>
     <use xlink:href="#m7e81604c87" x="328.855748" y="131.112466" style="stroke: #000000"/>
    </g>
   </g>
   <g id="PathCollection_30">
    <defs>
     <path id="mc5dc213c96" d="M 0 -1.414214 
L -0.317511 -0.437016 
L -1.344997 -0.437016 
L -0.513743 0.166925 
L -0.831254 1.144123 
L -0 0.540181 
L 0.831254 1.144123 
L 0.513743 0.166925 
L 1.344997 -0.437016 
L 0.317511 -0.437016 
z
" style="stroke: #0000ff"/>
    </defs>
    <g clip-path="url(#p88ee972c22)">
     <use xlink:href="#mc5dc213c96" x="254.192096" y="165.104109" style="fill: #0000ff; stroke: #0000ff"/>
     <use xlink:href="#mc5dc213c96" x="283.491686" y="169.488762" style="fill: #0000ff; stroke: #0000ff"/>
     <use xlink:href="#mc5dc213c96" x="266.765972" y="183.490357" style="fill: #0000ff; stroke: #0000ff"/>
     <use xlink:href="#mc5dc213c96" x="287.797045" y="147.380634" style="fill: #0000ff; stroke: #0000ff"/>
     <use xlink:href="#mc5dc213c96" x="285.735996" y="145.926563" style="fill: #0000ff; stroke: #0000ff"/>
     <use xlink:href="#mc5dc213c96" x="240.407912" y="146.029407" style="fill: #0000ff; stroke: #0000ff"/>
     <use xlink:href="#mc5dc213c96" x="286.490535" y="155.513899" style="fill: #0000ff; stroke: #0000ff"/>
     <use xlink:href="#mc5dc213c96" x="290.488326" y="155.247473" style="fill: #0000ff; stroke: #0000ff"/>
     <use xlink:href="#mc5dc213c96" x="236.72619" y="133.84094" style="fill: #0000ff; stroke: #0000ff"/>
     <use xlink:href="#mc5dc213c96" x="253.551052" y="157.117191" style="fill: #0000ff; stroke: #0000ff"/>
    </g>
   </g>
   <g id="PathCollection_31">
    <defs>
     <path id="m3a1603396a" d="M 0 -1.414214 
L -0.317511 -0.437016 
L -1.344997 -0.437016 
L -0.513743 0.166925 
L -0.831254 1.144123 
L -0 0.540181 
L 0.831254 1.144123 
L 0.513743 0.166925 
L 1.344997 -0.437016 
L 0.317511 -0.437016 
z
" style="stroke: #ff0000"/>
    </defs>
    <g clip-path="url(#p88ee972c22)">
     <use xlink:href="#m3a1603396a" x="274.456562" y="119.880788" style="fill: #ff0000; stroke: #ff0000"/>
     <use xlink:href="#m3a1603396a" x="295.64229" y="217.754755" style="fill: #ff0000; stroke: #ff0000"/>
     <use xlink:href="#m3a1603396a" x="286.202554" y="223.436483" style="fill: #ff0000; stroke: #ff0000"/>
     <use xlink:href="#m3a1603396a" x="297.64582" y="221.556134" style="fill: #ff0000; stroke: #ff0000"/>
     <use xlink:href="#m3a1603396a" x="289.29991" y="224.704979" style="fill: #ff0000; stroke: #ff0000"/>
     <use xlink:href="#m3a1603396a" x="288.338403" y="129.624758" style="fill: #ff0000; stroke: #ff0000"/>
     <use xlink:href="#m3a1603396a" x="288.536644" y="153.456598" style="fill: #ff0000; stroke: #ff0000"/>
     <use xlink:href="#m3a1603396a" x="270.421" y="120.010774" style="fill: #ff0000; stroke: #ff0000"/>
     <use xlink:href="#m3a1603396a" x="271.541736" y="140.220328" style="fill: #ff0000; stroke: #ff0000"/>
     <use xlink:href="#m3a1603396a" x="293.443387" y="223.902676" style="fill: #ff0000; stroke: #ff0000"/>
    </g>
   </g>
   <g id="PathCollection_32">
    <defs>
     <path id="mf7f9b61971" d="M 0 -1.414214 
L -0.317511 -0.437016 
L -1.344997 -0.437016 
L -0.513743 0.166925 
L -0.831254 1.144123 
L -0 0.540181 
L 0.831254 1.144123 
L 0.513743 0.166925 
L 1.344997 -0.437016 
L 0.317511 -0.437016 
z
" style="stroke: #ffc0cb"/>
    </defs>
    <g clip-path="url(#p88ee972c22)">
     <use xlink:href="#mf7f9b61971" x="131.675108" y="230.08181" style="fill: #ffc0cb; stroke: #ffc0cb"/>
     <use xlink:href="#mf7f9b61971" x="154.056131" y="231.31599" style="fill: #ffc0cb; stroke: #ffc0cb"/>
     <use xlink:href="#mf7f9b61971" x="183.834462" y="235.330649" style="fill: #ffc0cb; stroke: #ffc0cb"/>
     <use xlink:href="#mf7f9b61971" x="90.433489" y="213.748253" style="fill: #ffc0cb; stroke: #ffc0cb"/>
     <use xlink:href="#mf7f9b61971" x="174.30768" y="239.732388" style="fill: #ffc0cb; stroke: #ffc0cb"/>
     <use xlink:href="#mf7f9b61971" x="110.377614" y="232.304332" style="fill: #ffc0cb; stroke: #ffc0cb"/>
     <use xlink:href="#mf7f9b61971" x="180.927346" y="245.343461" style="fill: #ffc0cb; stroke: #ffc0cb"/>
     <use xlink:href="#mf7f9b61971" x="102.481137" y="198.212446" style="fill: #ffc0cb; stroke: #ffc0cb"/>
     <use xlink:href="#mf7f9b61971" x="129.992302" y="219.068853" style="fill: #ffc0cb; stroke: #ffc0cb"/>
     <use xlink:href="#mf7f9b61971" x="128.418973" y="214.069244" style="fill: #ffc0cb; stroke: #ffc0cb"/>
    </g>
   </g>
   <g id="matplotlib.axis_1"/>
   <g id="matplotlib.axis_2"/>
   <g id="patch_3">
    <path d="M 7.2 299.518125 
L 7.2 22.318125 
" style="fill: none"/>
   </g>
   <g id="patch_4">
    <path d="M 397.8 299.518125 
L 397.8 22.318125 
" style="fill: none"/>
   </g>
   <g id="patch_5">
    <path d="M 7.2 299.518125 
L 397.8 299.518125 
" style="fill: none"/>
   </g>
   <g id="patch_6">
    <path d="M 7.2 22.318125 
L 397.8 22.318125 
" style="fill: none"/>
   </g>
   <g id="text_1">
    <!-- Sammon mapping -->
    <g transform="translate(147.526875 16.318125) scale(0.12 -0.12)">
     <defs>
      <path id="DejaVuSans-53" d="M 3425 4513 
L 3425 3897 
Q 3066 4069 2747 4153 
Q 2428 4238 2131 4238 
Q 1616 4238 1336 4038 
Q 1056 3838 1056 3469 
Q 1056 3159 1242 3001 
Q 1428 2844 1947 2747 
L 2328 2669 
Q 3034 2534 3370 2195 
Q 3706 1856 3706 1288 
Q 3706 609 3251 259 
Q 2797 -91 1919 -91 
Q 1588 -91 1214 -16 
Q 841 59 441 206 
L 441 856 
Q 825 641 1194 531 
Q 1563 422 1919 422 
Q 2459 422 2753 634 
Q 3047 847 3047 1241 
Q 3047 1584 2836 1778 
Q 2625 1972 2144 2069 
L 1759 2144 
Q 1053 2284 737 2584 
Q 422 2884 422 3419 
Q 422 4038 858 4394 
Q 1294 4750 2059 4750 
Q 2388 4750 2728 4690 
Q 3069 4631 3425 4513 
z
" transform="scale(0.015625)"/>
      <path id="DejaVuSans-61" d="M 2194 1759 
Q 1497 1759 1228 1600 
Q 959 1441 959 1056 
Q 959 750 1161 570 
Q 1363 391 1709 391 
Q 2188 391 2477 730 
Q 2766 1069 2766 1631 
L 2766 1759 
L 2194 1759 
z
M 3341 1997 
L 3341 0 
L 2766 0 
L 2766 531 
Q 2569 213 2275 61 
Q 1981 -91 1556 -91 
Q 1019 -91 701 211 
Q 384 513 384 1019 
Q 384 1609 779 1909 
Q 1175 2209 1959 2209 
L 2766 2209 
L 2766 2266 
Q 2766 2663 2505 2880 
Q 2244 3097 1772 3097 
Q 1472 3097 1187 3025 
Q 903 2953 641 2809 
L 641 3341 
Q 956 3463 1253 3523 
Q 1550 3584 1831 3584 
Q 2591 3584 2966 3190 
Q 3341 2797 3341 1997 
z
" transform="scale(0.015625)"/>
      <path id="DejaVuSans-6d" d="M 3328 2828 
Q 3544 3216 3844 3400 
Q 4144 3584 4550 3584 
Q 5097 3584 5394 3201 
Q 5691 2819 5691 2113 
L 5691 0 
L 5113 0 
L 5113 2094 
Q 5113 2597 4934 2840 
Q 4756 3084 4391 3084 
Q 3944 3084 3684 2787 
Q 3425 2491 3425 1978 
L 3425 0 
L 2847 0 
L 2847 2094 
Q 2847 2600 2669 2842 
Q 2491 3084 2119 3084 
Q 1678 3084 1418 2786 
Q 1159 2488 1159 1978 
L 1159 0 
L 581 0 
L 581 3500 
L 1159 3500 
L 1159 2956 
Q 1356 3278 1631 3431 
Q 1906 3584 2284 3584 
Q 2666 3584 2933 3390 
Q 3200 3197 3328 2828 
z
" transform="scale(0.015625)"/>
      <path id="DejaVuSans-6f" d="M 1959 3097 
Q 1497 3097 1228 2736 
Q 959 2375 959 1747 
Q 959 1119 1226 758 
Q 1494 397 1959 397 
Q 2419 397 2687 759 
Q 2956 1122 2956 1747 
Q 2956 2369 2687 2733 
Q 2419 3097 1959 3097 
z
M 1959 3584 
Q 2709 3584 3137 3096 
Q 3566 2609 3566 1747 
Q 3566 888 3137 398 
Q 2709 -91 1959 -91 
Q 1206 -91 779 398 
Q 353 888 353 1747 
Q 353 2609 779 3096 
Q 1206 3584 1959 3584 
z
" transform="scale(0.015625)"/>
      <path id="DejaVuSans-6e" d="M 3513 2113 
L 3513 0 
L 2938 0 
L 2938 2094 
Q 2938 2591 2744 2837 
Q 2550 3084 2163 3084 
Q 1697 3084 1428 2787 
Q 1159 2491 1159 1978 
L 1159 0 
L 581 0 
L 581 3500 
L 1159 3500 
L 1159 2956 
Q 1366 3272 1645 3428 
Q 1925 3584 2291 3584 
Q 2894 3584 3203 3211 
Q 3513 2838 3513 2113 
z
" transform="scale(0.015625)"/>
      <path id="DejaVuSans-20" transform="scale(0.015625)"/>
      <path id="DejaVuSans-70" d="M 1159 525 
L 1159 -1331 
L 581 -1331 
L 581 3500 
L 1159 3500 
L 1159 2969 
Q 1341 3281 1617 3432 
Q 1894 3584 2278 3584 
Q 2916 3584 3314 3078 
Q 3713 2572 3713 1747 
Q 3713 922 3314 415 
Q 2916 -91 2278 -91 
Q 1894 -91 1617 61 
Q 1341 213 1159 525 
z
M 3116 1747 
Q 3116 2381 2855 2742 
Q 2594 3103 2138 3103 
Q 1681 3103 1420 2742 
Q 1159 2381 1159 1747 
Q 1159 1113 1420 752 
Q 1681 391 2138 391 
Q 2594 391 2855 752 
Q 3116 1113 3116 1747 
z
" transform="scale(0.015625)"/>
      <path id="DejaVuSans-69" d="M 603 3500 
L 1178 3500 
L 1178 0 
L 603 0 
L 603 3500 
z
M 603 4863 
L 1178 4863 
L 1178 4134 
L 603 4134 
L 603 4863 
z
" transform="scale(0.015625)"/>
      <path id="DejaVuSans-67" d="M 2906 1791 
Q 2906 2416 2648 2759 
Q 2391 3103 1925 3103 
Q 1463 3103 1205 2759 
Q 947 2416 947 1791 
Q 947 1169 1205 825 
Q 1463 481 1925 481 
Q 2391 481 2648 825 
Q 2906 1169 2906 1791 
z
M 3481 434 
Q 3481 -459 3084 -895 
Q 2688 -1331 1869 -1331 
Q 1566 -1331 1297 -1286 
Q 1028 -1241 775 -1147 
L 775 -588 
Q 1028 -725 1275 -790 
Q 1522 -856 1778 -856 
Q 2344 -856 2625 -561 
Q 2906 -266 2906 331 
L 2906 616 
Q 2728 306 2450 153 
Q 2172 0 1784 0 
Q 1141 0 747 490 
Q 353 981 353 1791 
Q 353 2603 747 3093 
Q 1141 3584 1784 3584 
Q 2172 3584 2450 3431 
Q 2728 3278 2906 2969 
L 2906 3500 
L 3481 3500 
L 3481 434 
z
" transform="scale(0.015625)"/>
     </defs>
     <use xlink:href="#DejaVuSans-53"/>
     <use xlink:href="#DejaVuSans-61" x="63.476562"/>
     <use xlink:href="#DejaVuSans-6d" x="124.755859"/>
     <use xlink:href="#DejaVuSans-6d" x="222.167969"/>
     <use xlink:href="#DejaVuSans-6f" x="319.580078"/>
     <use xlink:href="#DejaVuSans-6e" x="380.761719"/>
     <use xlink:href="#DejaVuSans-20" x="444.140625"/>
     <use xlink:href="#DejaVuSans-6d" x="475.927734"/>
     <use xlink:href="#DejaVuSans-61" x="573.339844"/>
     <use xlink:href="#DejaVuSans-70" x="634.619141"/>
     <use xlink:href="#DejaVuSans-70" x="698.095703"/>
     <use xlink:href="#DejaVuSans-69" x="761.572266"/>
     <use xlink:href="#DejaVuSans-6e" x="789.355469"/>
     <use xlink:href="#DejaVuSans-67" x="852.734375"/>
    </g>
   </g>
  </g>
 </g>
 <defs>
  <clipPath id="p88ee972c22">
   <rect x="7.2" y="22.318125" width="390.6" height="277.2"/>
  </clipPath>
 </defs>
</svg>
