<?xml version="1.0" encoding="utf-8" standalone="no"?>
<!DOCTYPE svg PUBLIC "-//W3C//DTD SVG 1.1//EN"
  "http://www.w3.org/Graphics/SVG/1.1/DTD/svg11.dtd">
<svg xmlns:xlink="http://www.w3.org/1999/xlink" width="405pt" height="306.718125pt" viewBox="0 0 405 306.718125" xmlns="http://www.w3.org/2000/svg" version="1.1">
 <metadata>
  <rdf:RDF xmlns:dc="http://purl.org/dc/elements/1.1/" xmlns:cc="http://creativecommons.org/ns#" xmlns:rdf="http://www.w3.org/1999/02/22-rdf-syntax-ns#">
   <cc:Work>
    <dc:type rdf:resource="http://purl.org/dc/dcmitype/StillImage"/>
    <dc:date>2023-06-28T12:32:45.213162</dc:date>
    <dc:format>image/svg+xml</dc:format>
    <dc:creator>
     <cc:Agent>
      <dc:title>Matplotlib v3.7.1, https://matplotlib.org/</dc:title>
     </cc:Agent>
    </dc:creator>
   </cc:Work>
  </rdf:RDF>
 </metadata>
 <defs>
  <style type="text/css">*{stroke-linejoin: round; stroke-linecap: butt}</style>
 </defs>
 <g id="figure_1">
  <g id="patch_1">
   <path d="M 0 306.718125 
L 405 306.718125 
L 405 0 
L 0 0 
z
" style="fill: #ffffff"/>
  </g>
  <g id="axes_1">
   <g id="patch_2">
    <path d="M 7.2 299.518125 
L 397.8 299.518125 
L 397.8 22.318125 
L 7.2 22.318125 
z
" style="fill: #ffffff"/>
   </g>
   <g id="PathCollection_1">
    <defs>
     <path id="mdd3a913e3e" d="M -1.414214 0 
L 1.414214 0 
M 0 1.414214 
L 0 -1.414214 
" style="stroke: #000000; stroke-width: 1.5"/>
    </defs>
    <g clip-path="url(#p86cb2689be)">
     <use xlink:href="#mdd3a913e3e" x="82.881016" y="105.725181" style="stroke: #000000; stroke-width: 1.5"/>
     <use xlink:href="#mdd3a913e3e" x="125.744086" y="218.121919" style="stroke: #000000; stroke-width: 1.5"/>
     <use xlink:href="#mdd3a913e3e" x="86.67425" y="142.819781" style="stroke: #000000; stroke-width: 1.5"/>
     <use xlink:href="#mdd3a913e3e" x="175.302767" y="44.66283" style="stroke: #000000; stroke-width: 1.5"/>
     <use xlink:href="#mdd3a913e3e" x="110.338902" y="189.226318" style="stroke: #000000; stroke-width: 1.5"/>
     <use xlink:href="#mdd3a913e3e" x="165.233522" y="34.918125" style="stroke: #000000; stroke-width: 1.5"/>
     <use xlink:href="#mdd3a913e3e" x="105.272306" y="92.833382" style="stroke: #000000; stroke-width: 1.5"/>
     <use xlink:href="#mdd3a913e3e" x="110.172822" y="110.687354" style="stroke: #000000; stroke-width: 1.5"/>
     <use xlink:href="#mdd3a913e3e" x="87.185998" y="78.092376" style="stroke: #000000; stroke-width: 1.5"/>
     <use xlink:href="#mdd3a913e3e" x="120.244125" y="215.218285" style="stroke: #000000; stroke-width: 1.5"/>
    </g>
   </g>
   <g id="PathCollection_2">
    <defs>
     <path id="m33cc770366" d="M -1.414214 0 
L 1.414214 0 
M 0 1.414214 
L 0 -1.414214 
" style="stroke: #0000ff; stroke-width: 1.5"/>
    </defs>
    <g clip-path="url(#p86cb2689be)">
     <use xlink:href="#m33cc770366" x="104.302208" y="199.069053" style="fill: #0000ff; stroke: #0000ff; stroke-width: 1.5"/>
     <use xlink:href="#m33cc770366" x="134.047703" y="219.874725" style="fill: #0000ff; stroke: #0000ff; stroke-width: 1.5"/>
     <use xlink:href="#m33cc770366" x="109.686747" y="222.814677" style="fill: #0000ff; stroke: #0000ff; stroke-width: 1.5"/>
     <use xlink:href="#m33cc770366" x="118.698545" y="233.837207" style="fill: #0000ff; stroke: #0000ff; stroke-width: 1.5"/>
     <use xlink:href="#m33cc770366" x="123.82737" y="226.191124" style="fill: #0000ff; stroke: #0000ff; stroke-width: 1.5"/>
     <use xlink:href="#m33cc770366" x="116.960863" y="234.804768" style="fill: #0000ff; stroke: #0000ff; stroke-width: 1.5"/>
     <use xlink:href="#m33cc770366" x="80.568448" y="259.986176" style="fill: #0000ff; stroke: #0000ff; stroke-width: 1.5"/>
     <use xlink:href="#m33cc770366" x="90.165127" y="239.738746" style="fill: #0000ff; stroke: #0000ff; stroke-width: 1.5"/>
     <use xlink:href="#m33cc770366" x="115.032853" y="232.901385" style="fill: #0000ff; stroke: #0000ff; stroke-width: 1.5"/>
     <use xlink:href="#m33cc770366" x="113.483419" y="220.792937" style="fill: #0000ff; stroke: #0000ff; stroke-width: 1.5"/>
    </g>
   </g>
   <g id="PathCollection_3">
    <defs>
     <path id="m4f3c0209d1" d="M -1.414214 0 
L 1.414214 0 
M 0 1.414214 
L 0 -1.414214 
" style="stroke: #ff0000; stroke-width: 1.5"/>
    </defs>
    <g clip-path="url(#p86cb2689be)">
     <use xlink:href="#m4f3c0209d1" x="200.825805" y="258.42007" style="fill: #ff0000; stroke: #ff0000; stroke-width: 1.5"/>
     <use xlink:href="#m4f3c0209d1" x="212.19516" y="244.216179" style="fill: #ff0000; stroke: #ff0000; stroke-width: 1.5"/>
     <use xlink:href="#m4f3c0209d1" x="185.597727" y="228.823712" style="fill: #ff0000; stroke: #ff0000; stroke-width: 1.5"/>
     <use xlink:href="#m4f3c0209d1" x="235.390638" y="168.376547" style="fill: #ff0000; stroke: #ff0000; stroke-width: 1.5"/>
     <use xlink:href="#m4f3c0209d1" x="238.194005" y="140.922359" style="fill: #ff0000; stroke: #ff0000; stroke-width: 1.5"/>
     <use xlink:href="#m4f3c0209d1" x="165.006734" y="163.623881" style="fill: #ff0000; stroke: #ff0000; stroke-width: 1.5"/>
     <use xlink:href="#m4f3c0209d1" x="181.212246" y="127.280726" style="fill: #ff0000; stroke: #ff0000; stroke-width: 1.5"/>
     <use xlink:href="#m4f3c0209d1" x="192.453828" y="109.381567" style="fill: #ff0000; stroke: #ff0000; stroke-width: 1.5"/>
     <use xlink:href="#m4f3c0209d1" x="121.096232" y="176.191477" style="fill: #ff0000; stroke: #ff0000; stroke-width: 1.5"/>
     <use xlink:href="#m4f3c0209d1" x="135.732842" y="186.645032" style="fill: #ff0000; stroke: #ff0000; stroke-width: 1.5"/>
    </g>
   </g>
   <g id="PathCollection_4">
    <defs>
     <path id="m42f80c59c2" d="M -1.414214 0 
L 1.414214 0 
M 0 1.414214 
L 0 -1.414214 
" style="stroke: #ffc0cb; stroke-width: 1.5"/>
    </defs>
    <g clip-path="url(#p86cb2689be)">
     <use xlink:href="#m42f80c59c2" x="154.960525" y="182.233273" style="fill: #ffc0cb; stroke: #ffc0cb; stroke-width: 1.5"/>
     <use xlink:href="#m42f80c59c2" x="152.725495" y="186.48962" style="fill: #ffc0cb; stroke: #ffc0cb; stroke-width: 1.5"/>
     <use xlink:href="#m42f80c59c2" x="184.979108" y="190.262995" style="fill: #ffc0cb; stroke: #ffc0cb; stroke-width: 1.5"/>
     <use xlink:href="#m42f80c59c2" x="124.190181" y="170.058221" style="fill: #ffc0cb; stroke: #ffc0cb; stroke-width: 1.5"/>
     <use xlink:href="#m42f80c59c2" x="128.031724" y="189.623785" style="fill: #ffc0cb; stroke: #ffc0cb; stroke-width: 1.5"/>
     <use xlink:href="#m42f80c59c2" x="180.908824" y="84.18946" style="fill: #ffc0cb; stroke: #ffc0cb; stroke-width: 1.5"/>
     <use xlink:href="#m42f80c59c2" x="134.680397" y="142.564463" style="fill: #ffc0cb; stroke: #ffc0cb; stroke-width: 1.5"/>
     <use xlink:href="#m42f80c59c2" x="146.370399" y="178.619206" style="fill: #ffc0cb; stroke: #ffc0cb; stroke-width: 1.5"/>
     <use xlink:href="#m42f80c59c2" x="164.417359" y="184.886975" style="fill: #ffc0cb; stroke: #ffc0cb; stroke-width: 1.5"/>
     <use xlink:href="#m42f80c59c2" x="134.366842" y="204.5562" style="fill: #ffc0cb; stroke: #ffc0cb; stroke-width: 1.5"/>
    </g>
   </g>
   <g id="PathCollection_5">
    <defs>
     <path id="md420638972" d="M 0 0.707107 
C 0.187527 0.707107 0.367398 0.632602 0.5 0.5 
C 0.632602 0.367398 0.707107 0.187527 0.707107 0 
C 0.707107 -0.187527 0.632602 -0.367398 0.5 -0.5 
C 0.367398 -0.632602 0.187527 -0.707107 0 -0.707107 
C -0.187527 -0.707107 -0.367398 -0.632602 -0.5 -0.5 
C -0.632602 -0.367398 -0.707107 -0.187527 -0.707107 0 
C -0.707107 0.187527 -0.632602 0.367398 -0.5 0.5 
C -0.367398 0.632602 -0.187527 0.707107 0 0.707107 
z
" style="stroke: #000000"/>
    </defs>
    <g clip-path="url(#p86cb2689be)">
     <use xlink:href="#md420638972" x="173.960482" y="181.749621" style="stroke: #000000"/>
     <use xlink:href="#md420638972" x="182.703177" y="227.842006" style="stroke: #000000"/>
     <use xlink:href="#md420638972" x="192.395985" y="225.739321" style="stroke: #000000"/>
     <use xlink:href="#md420638972" x="173.149877" y="175.864103" style="stroke: #000000"/>
     <use xlink:href="#md420638972" x="175.012805" y="99.841354" style="stroke: #000000"/>
     <use xlink:href="#md420638972" x="184.914502" y="109.738402" style="stroke: #000000"/>
     <use xlink:href="#md420638972" x="172.363683" y="152.686788" style="stroke: #000000"/>
     <use xlink:href="#md420638972" x="195.811448" y="127.775943" style="stroke: #000000"/>
     <use xlink:href="#md420638972" x="163.373135" y="116.585034" style="stroke: #000000"/>
     <use xlink:href="#md420638972" x="129.357394" y="84.099679" style="stroke: #000000"/>
    </g>
   </g>
   <g id="PathCollection_6">
    <defs>
     <path id="m061cc8581c" d="M 0 0.707107 
C 0.187527 0.707107 0.367398 0.632602 0.5 0.5 
C 0.632602 0.367398 0.707107 0.187527 0.707107 0 
C 0.707107 -0.187527 0.632602 -0.367398 0.5 -0.5 
C 0.367398 -0.632602 0.187527 -0.707107 0 -0.707107 
C -0.187527 -0.707107 -0.367398 -0.632602 -0.5 -0.5 
C -0.632602 -0.367398 -0.707107 -0.187527 -0.707107 0 
C -0.707107 0.187527 -0.632602 0.367398 -0.5 0.5 
C -0.367398 0.632602 -0.187527 0.707107 0 0.707107 
z
" style="stroke: #0000ff"/>
    </defs>
    <g clip-path="url(#p86cb2689be)">
     <use xlink:href="#m061cc8581c" x="102.696319" y="187.720011" style="fill: #0000ff; stroke: #0000ff"/>
     <use xlink:href="#m061cc8581c" x="129.928991" y="177.979091" style="fill: #0000ff; stroke: #0000ff"/>
     <use xlink:href="#m061cc8581c" x="113.814534" y="174.781189" style="fill: #0000ff; stroke: #0000ff"/>
     <use xlink:href="#m061cc8581c" x="96.360912" y="115.918025" style="fill: #0000ff; stroke: #0000ff"/>
     <use xlink:href="#m061cc8581c" x="100.770841" y="74.040671" style="fill: #0000ff; stroke: #0000ff"/>
     <use xlink:href="#m061cc8581c" x="91.364936" y="106.467819" style="fill: #0000ff; stroke: #0000ff"/>
     <use xlink:href="#m061cc8581c" x="105.463206" y="49.551209" style="fill: #0000ff; stroke: #0000ff"/>
     <use xlink:href="#m061cc8581c" x="88.336162" y="132.036821" style="fill: #0000ff; stroke: #0000ff"/>
     <use xlink:href="#m061cc8581c" x="125.746711" y="51.962768" style="fill: #0000ff; stroke: #0000ff"/>
     <use xlink:href="#m061cc8581c" x="96.603709" y="107.167917" style="fill: #0000ff; stroke: #0000ff"/>
    </g>
   </g>
   <g id="PathCollection_7">
    <defs>
     <path id="m5c50c5ee89" d="M 0 0.707107 
C 0.187527 0.707107 0.367398 0.632602 0.5 0.5 
C 0.632602 0.367398 0.707107 0.187527 0.707107 0 
C 0.707107 -0.187527 0.632602 -0.367398 0.5 -0.5 
C 0.367398 -0.632602 0.187527 -0.707107 0 -0.707107 
C -0.187527 -0.707107 -0.367398 -0.632602 -0.5 -0.5 
C -0.632602 -0.367398 -0.707107 -0.187527 -0.707107 0 
C -0.707107 0.187527 -0.632602 0.367398 -0.5 0.5 
C -0.367398 0.632602 -0.187527 0.707107 0 0.707107 
z
" style="stroke: #ff0000"/>
    </defs>
    <g clip-path="url(#p86cb2689be)">
     <use xlink:href="#m5c50c5ee89" x="76.049733" y="165.539516" style="fill: #ff0000; stroke: #ff0000"/>
     <use xlink:href="#m5c50c5ee89" x="81.891436" y="216.031669" style="fill: #ff0000; stroke: #ff0000"/>
     <use xlink:href="#m5c50c5ee89" x="108.591072" y="98.078856" style="fill: #ff0000; stroke: #ff0000"/>
     <use xlink:href="#m5c50c5ee89" x="117.870161" y="108.030088" style="fill: #ff0000; stroke: #ff0000"/>
     <use xlink:href="#m5c50c5ee89" x="84.134409" y="120.751356" style="fill: #ff0000; stroke: #ff0000"/>
     <use xlink:href="#m5c50c5ee89" x="106.547041" y="118.249891" style="fill: #ff0000; stroke: #ff0000"/>
     <use xlink:href="#m5c50c5ee89" x="76.839911" y="170.844735" style="fill: #ff0000; stroke: #ff0000"/>
     <use xlink:href="#m5c50c5ee89" x="80.307161" y="155.415089" style="fill: #ff0000; stroke: #ff0000"/>
     <use xlink:href="#m5c50c5ee89" x="106.140128" y="104.765356" style="fill: #ff0000; stroke: #ff0000"/>
     <use xlink:href="#m5c50c5ee89" x="102.844836" y="98.797441" style="fill: #ff0000; stroke: #ff0000"/>
    </g>
   </g>
   <g id="PathCollection_8">
    <defs>
     <path id="mdb1f6285b7" d="M 0 0.707107 
C 0.187527 0.707107 0.367398 0.632602 0.5 0.5 
C 0.632602 0.367398 0.707107 0.187527 0.707107 0 
C 0.707107 -0.187527 0.632602 -0.367398 0.5 -0.5 
C 0.367398 -0.632602 0.187527 -0.707107 0 -0.707107 
C -0.187527 -0.707107 -0.367398 -0.632602 -0.5 -0.5 
C -0.632602 -0.367398 -0.707107 -0.187527 -0.707107 0 
C -0.707107 0.187527 -0.632602 0.367398 -0.5 0.5 
C -0.367398 0.632602 -0.187527 0.707107 0 0.707107 
z
" style="stroke: #ffc0cb"/>
    </defs>
    <g clip-path="url(#p86cb2689be)">
     <use xlink:href="#mdb1f6285b7" x="24.954545" y="208.447279" style="fill: #ffc0cb; stroke: #ffc0cb"/>
     <use xlink:href="#mdb1f6285b7" x="74.759827" y="225.275847" style="fill: #ffc0cb; stroke: #ffc0cb"/>
     <use xlink:href="#mdb1f6285b7" x="70.45865" y="184.806013" style="fill: #ffc0cb; stroke: #ffc0cb"/>
     <use xlink:href="#mdb1f6285b7" x="156.291058" y="275.281168" style="fill: #ffc0cb; stroke: #ffc0cb"/>
     <use xlink:href="#mdb1f6285b7" x="47.522284" y="168.36336" style="fill: #ffc0cb; stroke: #ffc0cb"/>
     <use xlink:href="#mdb1f6285b7" x="49.972542" y="163.383262" style="fill: #ffc0cb; stroke: #ffc0cb"/>
     <use xlink:href="#mdb1f6285b7" x="101.850332" y="245.595668" style="fill: #ffc0cb; stroke: #ffc0cb"/>
     <use xlink:href="#mdb1f6285b7" x="70.819475" y="183.232793" style="fill: #ffc0cb; stroke: #ffc0cb"/>
     <use xlink:href="#mdb1f6285b7" x="134.191213" y="42.669274" style="fill: #ffc0cb; stroke: #ffc0cb"/>
     <use xlink:href="#mdb1f6285b7" x="109.881245" y="228.493676" style="fill: #ffc0cb; stroke: #ffc0cb"/>
    </g>
   </g>
   <g id="PathCollection_9">
    <defs>
     <path id="m29524007cb" d="M -0 1.414214 
L 1.414214 -1.414214 
L -1.414214 -1.414214 
z
" style="stroke: #000000"/>
    </defs>
    <g clip-path="url(#p86cb2689be)">
     <use xlink:href="#m29524007cb" x="190.296856" y="212.194837" style="stroke: #000000"/>
     <use xlink:href="#m29524007cb" x="193.47947" y="229.489547" style="stroke: #000000"/>
     <use xlink:href="#m29524007cb" x="202.647781" y="217.539122" style="stroke: #000000"/>
     <use xlink:href="#m29524007cb" x="190.848086" y="172.952712" style="stroke: #000000"/>
     <use xlink:href="#m29524007cb" x="168.939918" y="182.656717" style="stroke: #000000"/>
     <use xlink:href="#m29524007cb" x="202.559702" y="150.555648" style="stroke: #000000"/>
     <use xlink:href="#m29524007cb" x="174.524497" y="132.67177" style="stroke: #000000"/>
     <use xlink:href="#m29524007cb" x="170.334424" y="168.776623" style="stroke: #000000"/>
     <use xlink:href="#m29524007cb" x="184.940668" y="190.817568" style="stroke: #000000"/>
     <use xlink:href="#m29524007cb" x="160.816685" y="191.726057" style="stroke: #000000"/>
    </g>
   </g>
   <g id="PathCollection_10">
    <defs>
     <path id="m9b79e81b68" d="M -0 1.414214 
L 1.414214 -1.414214 
L -1.414214 -1.414214 
z
" style="stroke: #0000ff"/>
    </defs>
    <g clip-path="url(#p86cb2689be)">
     <use xlink:href="#m9b79e81b68" x="149.660156" y="195.631088" style="fill: #0000ff; stroke: #0000ff"/>
     <use xlink:href="#m9b79e81b68" x="140.072731" y="227.387107" style="fill: #0000ff; stroke: #0000ff"/>
     <use xlink:href="#m9b79e81b68" x="176.505147" y="269.91015" style="fill: #0000ff; stroke: #0000ff"/>
     <use xlink:href="#m9b79e81b68" x="178.498783" y="277.505025" style="fill: #0000ff; stroke: #0000ff"/>
     <use xlink:href="#m9b79e81b68" x="133.80274" y="174.489589" style="fill: #0000ff; stroke: #0000ff"/>
     <use xlink:href="#m9b79e81b68" x="110.367673" y="199.397204" style="fill: #0000ff; stroke: #0000ff"/>
     <use xlink:href="#m9b79e81b68" x="110.050803" y="213.833204" style="fill: #0000ff; stroke: #0000ff"/>
     <use xlink:href="#m9b79e81b68" x="140.830997" y="186.057269" style="fill: #0000ff; stroke: #0000ff"/>
     <use xlink:href="#m9b79e81b68" x="163.451425" y="72.44895" style="fill: #0000ff; stroke: #0000ff"/>
     <use xlink:href="#m9b79e81b68" x="90.209635" y="153.876262" style="fill: #0000ff; stroke: #0000ff"/>
    </g>
   </g>
   <g id="PathCollection_11">
    <defs>
     <path id="m57e35849c5" d="M -0 1.414214 
L 1.414214 -1.414214 
L -1.414214 -1.414214 
z
" style="stroke: #ff0000"/>
    </defs>
    <g clip-path="url(#p86cb2689be)">
     <use xlink:href="#m57e35849c5" x="42.88205" y="222.029749" style="fill: #ff0000; stroke: #ff0000"/>
     <use xlink:href="#m57e35849c5" x="34.469136" y="228.374918" style="fill: #ff0000; stroke: #ff0000"/>
     <use xlink:href="#m57e35849c5" x="36.376418" y="228.704383" style="fill: #ff0000; stroke: #ff0000"/>
     <use xlink:href="#m57e35849c5" x="32.541946" y="215.191167" style="fill: #ff0000; stroke: #ff0000"/>
     <use xlink:href="#m57e35849c5" x="80.921344" y="222.710715" style="fill: #ff0000; stroke: #ff0000"/>
     <use xlink:href="#m57e35849c5" x="36.588206" y="227.88671" style="fill: #ff0000; stroke: #ff0000"/>
     <use xlink:href="#m57e35849c5" x="34.390554" y="224.152271" style="fill: #ff0000; stroke: #ff0000"/>
     <use xlink:href="#m57e35849c5" x="34.881359" y="228.115328" style="fill: #ff0000; stroke: #ff0000"/>
     <use xlink:href="#m57e35849c5" x="26.498763" y="207.834634" style="fill: #ff0000; stroke: #ff0000"/>
     <use xlink:href="#m57e35849c5" x="33.581299" y="224.959889" style="fill: #ff0000; stroke: #ff0000"/>
    </g>
   </g>
   <g id="PathCollection_12">
    <defs>
     <path id="m80a17d4204" d="M -0 1.414214 
L 1.414214 -1.414214 
L -1.414214 -1.414214 
z
" style="stroke: #ffc0cb"/>
    </defs>
    <g clip-path="url(#p86cb2689be)">
     <use xlink:href="#m80a17d4204" x="147.139461" y="141.007544" style="fill: #ffc0cb; stroke: #ffc0cb"/>
     <use xlink:href="#m80a17d4204" x="241.739038" y="208.870038" style="fill: #ffc0cb; stroke: #ffc0cb"/>
     <use xlink:href="#m80a17d4204" x="231.181369" y="159.841883" style="fill: #ffc0cb; stroke: #ffc0cb"/>
     <use xlink:href="#m80a17d4204" x="178.900954" y="221.876517" style="fill: #ffc0cb; stroke: #ffc0cb"/>
     <use xlink:href="#m80a17d4204" x="211.92607" y="213.20047" style="fill: #ffc0cb; stroke: #ffc0cb"/>
     <use xlink:href="#m80a17d4204" x="144.341852" y="90.738387" style="fill: #ffc0cb; stroke: #ffc0cb"/>
     <use xlink:href="#m80a17d4204" x="211.139603" y="218.467227" style="fill: #ffc0cb; stroke: #ffc0cb"/>
     <use xlink:href="#m80a17d4204" x="157.404153" y="211.95231" style="fill: #ffc0cb; stroke: #ffc0cb"/>
     <use xlink:href="#m80a17d4204" x="148.621501" y="190.830406" style="fill: #ffc0cb; stroke: #ffc0cb"/>
     <use xlink:href="#m80a17d4204" x="174.669646" y="183.680634" style="fill: #ffc0cb; stroke: #ffc0cb"/>
    </g>
   </g>
   <g id="PathCollection_13">
    <defs>
     <path id="m35792a2321" d="M 0 -1.414214 
L -1.414214 1.414214 
L 1.414214 1.414214 
z
" style="stroke: #000000"/>
    </defs>
    <g clip-path="url(#p86cb2689be)">
     <use xlink:href="#m35792a2321" x="160.842758" y="188.936976" style="stroke: #000000"/>
     <use xlink:href="#m35792a2321" x="161.34047" y="209.157563" style="stroke: #000000"/>
     <use xlink:href="#m35792a2321" x="156.088141" y="129.426134" style="stroke: #000000"/>
     <use xlink:href="#m35792a2321" x="180.945469" y="137.100353" style="stroke: #000000"/>
     <use xlink:href="#m35792a2321" x="153.719926" y="165.887778" style="stroke: #000000"/>
     <use xlink:href="#m35792a2321" x="149.051897" y="186.596772" style="stroke: #000000"/>
     <use xlink:href="#m35792a2321" x="200.944792" y="104.132456" style="stroke: #000000"/>
     <use xlink:href="#m35792a2321" x="195.264171" y="102.886471" style="stroke: #000000"/>
     <use xlink:href="#m35792a2321" x="150.143401" y="174.127738" style="stroke: #000000"/>
     <use xlink:href="#m35792a2321" x="154.569798" y="158.768737" style="stroke: #000000"/>
    </g>
   </g>
   <g id="PathCollection_14">
    <defs>
     <path id="m25e84b2066" d="M 0 -1.414214 
L -1.414214 1.414214 
L 1.414214 1.414214 
z
" style="stroke: #0000ff"/>
    </defs>
    <g clip-path="url(#p86cb2689be)">
     <use xlink:href="#m25e84b2066" x="131.878185" y="228.858857" style="fill: #0000ff; stroke: #0000ff"/>
     <use xlink:href="#m25e84b2066" x="157.226475" y="272.226315" style="fill: #0000ff; stroke: #0000ff"/>
     <use xlink:href="#m25e84b2066" x="148.909085" y="257.924943" style="fill: #0000ff; stroke: #0000ff"/>
     <use xlink:href="#m25e84b2066" x="120.25298" y="192.80525" style="fill: #0000ff; stroke: #0000ff"/>
     <use xlink:href="#m25e84b2066" x="153.002708" y="222.695397" style="fill: #0000ff; stroke: #0000ff"/>
     <use xlink:href="#m25e84b2066" x="133.237879" y="261.638445" style="fill: #0000ff; stroke: #0000ff"/>
     <use xlink:href="#m25e84b2066" x="146.533558" y="209.536039" style="fill: #0000ff; stroke: #0000ff"/>
     <use xlink:href="#m25e84b2066" x="158.793235" y="202.123733" style="fill: #0000ff; stroke: #0000ff"/>
     <use xlink:href="#m25e84b2066" x="162.880616" y="258.573956" style="fill: #0000ff; stroke: #0000ff"/>
     <use xlink:href="#m25e84b2066" x="127.701196" y="240.303259" style="fill: #0000ff; stroke: #0000ff"/>
    </g>
   </g>
   <g id="PathCollection_15">
    <defs>
     <path id="m8da0650519" d="M 0 -1.414214 
L -1.414214 1.414214 
L 1.414214 1.414214 
z
" style="stroke: #ff0000"/>
    </defs>
    <g clip-path="url(#p86cb2689be)">
     <use xlink:href="#m8da0650519" x="148.589915" y="199.87907" style="fill: #ff0000; stroke: #ff0000"/>
     <use xlink:href="#m8da0650519" x="160.940152" y="170.303084" style="fill: #ff0000; stroke: #ff0000"/>
     <use xlink:href="#m8da0650519" x="150.2762" y="195.078947" style="fill: #ff0000; stroke: #ff0000"/>
     <use xlink:href="#m8da0650519" x="145.691125" y="210.143354" style="fill: #ff0000; stroke: #ff0000"/>
     <use xlink:href="#m8da0650519" x="175.335857" y="177.583562" style="fill: #ff0000; stroke: #ff0000"/>
     <use xlink:href="#m8da0650519" x="147.2783" y="201.476606" style="fill: #ff0000; stroke: #ff0000"/>
     <use xlink:href="#m8da0650519" x="169.789908" y="194.06555" style="fill: #ff0000; stroke: #ff0000"/>
     <use xlink:href="#m8da0650519" x="158.16324" y="198.811421" style="fill: #ff0000; stroke: #ff0000"/>
     <use xlink:href="#m8da0650519" x="170.95098" y="181.420659" style="fill: #ff0000; stroke: #ff0000"/>
     <use xlink:href="#m8da0650519" x="173.08453" y="191.945671" style="fill: #ff0000; stroke: #ff0000"/>
    </g>
   </g>
   <g id="PathCollection_16">
    <defs>
     <path id="mbb206c337e" d="M 0 -1.414214 
L -1.414214 1.414214 
L 1.414214 1.414214 
z
" style="stroke: #ffc0cb"/>
    </defs>
    <g clip-path="url(#p86cb2689be)">
     <use xlink:href="#mbb206c337e" x="207.687662" y="174.327488" style="fill: #ffc0cb; stroke: #ffc0cb"/>
     <use xlink:href="#mbb206c337e" x="120.239051" y="134.314476" style="fill: #ffc0cb; stroke: #ffc0cb"/>
     <use xlink:href="#mbb206c337e" x="119.438239" y="130.717129" style="fill: #ffc0cb; stroke: #ffc0cb"/>
     <use xlink:href="#mbb206c337e" x="100.933004" y="138.27109" style="fill: #ffc0cb; stroke: #ffc0cb"/>
     <use xlink:href="#mbb206c337e" x="93.254607" y="148.659715" style="fill: #ffc0cb; stroke: #ffc0cb"/>
     <use xlink:href="#mbb206c337e" x="167.309351" y="164.417085" style="fill: #ffc0cb; stroke: #ffc0cb"/>
     <use xlink:href="#mbb206c337e" x="98.466782" y="159.177834" style="fill: #ffc0cb; stroke: #ffc0cb"/>
     <use xlink:href="#mbb206c337e" x="127.295183" y="66.852007" style="fill: #ffc0cb; stroke: #ffc0cb"/>
     <use xlink:href="#mbb206c337e" x="142.345657" y="109.70891" style="fill: #ffc0cb; stroke: #ffc0cb"/>
     <use xlink:href="#mbb206c337e" x="119.679271" y="134.043791" style="fill: #ffc0cb; stroke: #ffc0cb"/>
    </g>
   </g>
   <g id="PathCollection_17">
    <defs>
     <path id="m2ae63d48d4" d="M 1.414214 0 
L -1.414214 -1.414214 
L -1.414214 1.414214 
z
" style="stroke: #000000"/>
    </defs>
    <g clip-path="url(#p86cb2689be)">
     <use xlink:href="#m2ae63d48d4" x="149.299954" y="162.948434" style="stroke: #000000"/>
     <use xlink:href="#m2ae63d48d4" x="154.42643" y="179.820522" style="stroke: #000000"/>
     <use xlink:href="#m2ae63d48d4" x="150.949099" y="246.78681" style="stroke: #000000"/>
     <use xlink:href="#m2ae63d48d4" x="142.547801" y="263.884692" style="stroke: #000000"/>
     <use xlink:href="#m2ae63d48d4" x="130.284866" y="156.403665" style="stroke: #000000"/>
     <use xlink:href="#m2ae63d48d4" x="219.489182" y="84.16417" style="stroke: #000000"/>
     <use xlink:href="#m2ae63d48d4" x="229.125705" y="61.641093" style="stroke: #000000"/>
     <use xlink:href="#m2ae63d48d4" x="126.608739" y="144.546316" style="stroke: #000000"/>
     <use xlink:href="#m2ae63d48d4" x="203.110969" y="92.33076" style="stroke: #000000"/>
     <use xlink:href="#m2ae63d48d4" x="238.270789" y="61.385802" style="stroke: #000000"/>
    </g>
   </g>
   <g id="PathCollection_18">
    <defs>
     <path id="m441f1af7a1" d="M 1.414214 0 
L -1.414214 -1.414214 
L -1.414214 1.414214 
z
" style="stroke: #0000ff"/>
    </defs>
    <g clip-path="url(#p86cb2689be)">
     <use xlink:href="#m441f1af7a1" x="104.094431" y="172.261566" style="fill: #0000ff; stroke: #0000ff"/>
     <use xlink:href="#m441f1af7a1" x="137.803005" y="170.821868" style="fill: #0000ff; stroke: #0000ff"/>
     <use xlink:href="#m441f1af7a1" x="140.588609" y="123.332987" style="fill: #0000ff; stroke: #0000ff"/>
     <use xlink:href="#m441f1af7a1" x="142.990007" y="174.069762" style="fill: #0000ff; stroke: #0000ff"/>
     <use xlink:href="#m441f1af7a1" x="155.708852" y="143.992706" style="fill: #0000ff; stroke: #0000ff"/>
     <use xlink:href="#m441f1af7a1" x="111.468705" y="129.504287" style="fill: #0000ff; stroke: #0000ff"/>
     <use xlink:href="#m441f1af7a1" x="104.385335" y="150.796089" style="fill: #0000ff; stroke: #0000ff"/>
     <use xlink:href="#m441f1af7a1" x="133.17129" y="136.300565" style="fill: #0000ff; stroke: #0000ff"/>
     <use xlink:href="#m441f1af7a1" x="114.002529" y="139.543016" style="fill: #0000ff; stroke: #0000ff"/>
     <use xlink:href="#m441f1af7a1" x="122.992283" y="101.850199" style="fill: #0000ff; stroke: #0000ff"/>
    </g>
   </g>
   <g id="PathCollection_19">
    <defs>
     <path id="mb71f31ef14" d="M 1.414214 0 
L -1.414214 -1.414214 
L -1.414214 1.414214 
z
" style="stroke: #ff0000"/>
    </defs>
    <g clip-path="url(#p86cb2689be)">
     <use xlink:href="#mb71f31ef14" x="121.536703" y="226.358323" style="fill: #ff0000; stroke: #ff0000"/>
     <use xlink:href="#mb71f31ef14" x="122.206186" y="233.576107" style="fill: #ff0000; stroke: #ff0000"/>
     <use xlink:href="#mb71f31ef14" x="97.582489" y="246.331988" style="fill: #ff0000; stroke: #ff0000"/>
     <use xlink:href="#mb71f31ef14" x="58.274877" y="224.646294" style="fill: #ff0000; stroke: #ff0000"/>
     <use xlink:href="#mb71f31ef14" x="52.017066" y="223.632266" style="fill: #ff0000; stroke: #ff0000"/>
     <use xlink:href="#mb71f31ef14" x="77.674138" y="258.841782" style="fill: #ff0000; stroke: #ff0000"/>
     <use xlink:href="#mb71f31ef14" x="74.206689" y="197.356107" style="fill: #ff0000; stroke: #ff0000"/>
     <use xlink:href="#mb71f31ef14" x="80.134217" y="203.548094" style="fill: #ff0000; stroke: #ff0000"/>
     <use xlink:href="#mb71f31ef14" x="75.53518" y="201.984209" style="fill: #ff0000; stroke: #ff0000"/>
     <use xlink:href="#mb71f31ef14" x="69.234154" y="247.718107" style="fill: #ff0000; stroke: #ff0000"/>
    </g>
   </g>
   <g id="PathCollection_20">
    <defs>
     <path id="m821a91abdb" d="M 1.414214 0 
L -1.414214 -1.414214 
L -1.414214 1.414214 
z
" style="stroke: #ffc0cb"/>
    </defs>
    <g clip-path="url(#p86cb2689be)">
     <use xlink:href="#m821a91abdb" x="209.544804" y="235.781019" style="fill: #ffc0cb; stroke: #ffc0cb"/>
     <use xlink:href="#m821a91abdb" x="204.497571" y="212.176506" style="fill: #ffc0cb; stroke: #ffc0cb"/>
     <use xlink:href="#m821a91abdb" x="208.199799" y="199.637064" style="fill: #ffc0cb; stroke: #ffc0cb"/>
     <use xlink:href="#m821a91abdb" x="193.06475" y="169.283988" style="fill: #ffc0cb; stroke: #ffc0cb"/>
     <use xlink:href="#m821a91abdb" x="143.344376" y="154.946485" style="fill: #ffc0cb; stroke: #ffc0cb"/>
     <use xlink:href="#m821a91abdb" x="206.315115" y="166.045908" style="fill: #ffc0cb; stroke: #ffc0cb"/>
     <use xlink:href="#m821a91abdb" x="134.455805" y="130.423587" style="fill: #ffc0cb; stroke: #ffc0cb"/>
     <use xlink:href="#m821a91abdb" x="186.003956" y="133.125043" style="fill: #ffc0cb; stroke: #ffc0cb"/>
     <use xlink:href="#m821a91abdb" x="149.76644" y="121.025886" style="fill: #ffc0cb; stroke: #ffc0cb"/>
     <use xlink:href="#m821a91abdb" x="209.769615" y="218.726697" style="fill: #ffc0cb; stroke: #ffc0cb"/>
    </g>
   </g>
   <g id="PathCollection_21">
    <defs>
     <path id="mcb998a32f3" d="M -1.414214 -0 
L 1.414214 1.414214 
L 1.414214 -1.414214 
z
" style="stroke: #000000"/>
    </defs>
    <g clip-path="url(#p86cb2689be)">
     <use xlink:href="#mcb998a32f3" x="268.186275" y="197.63152" style="stroke: #000000"/>
     <use xlink:href="#mcb998a32f3" x="281.783592" y="154.383828" style="stroke: #000000"/>
     <use xlink:href="#mcb998a32f3" x="270.966435" y="159.209744" style="stroke: #000000"/>
     <use xlink:href="#mcb998a32f3" x="214.202722" y="173.809253" style="stroke: #000000"/>
     <use xlink:href="#mcb998a32f3" x="210.81159" y="192.509127" style="stroke: #000000"/>
     <use xlink:href="#mcb998a32f3" x="200.138065" y="195.079855" style="stroke: #000000"/>
     <use xlink:href="#mcb998a32f3" x="237.774439" y="114.842472" style="stroke: #000000"/>
     <use xlink:href="#mcb998a32f3" x="249.249542" y="127.165815" style="stroke: #000000"/>
     <use xlink:href="#mcb998a32f3" x="217.415334" y="189.613179" style="stroke: #000000"/>
     <use xlink:href="#mcb998a32f3" x="246.453097" y="130.178411" style="stroke: #000000"/>
    </g>
   </g>
   <g id="PathCollection_22">
    <defs>
     <path id="m54d195643d" d="M -1.414214 -0 
L 1.414214 1.414214 
L 1.414214 -1.414214 
z
" style="stroke: #0000ff"/>
    </defs>
    <g clip-path="url(#p86cb2689be)">
     <use xlink:href="#m54d195643d" x="376.060921" y="167.789443" style="fill: #0000ff; stroke: #0000ff"/>
     <use xlink:href="#m54d195643d" x="376.73076" y="167.574871" style="fill: #0000ff; stroke: #0000ff"/>
     <use xlink:href="#m54d195643d" x="362.942063" y="197.610814" style="fill: #0000ff; stroke: #0000ff"/>
     <use xlink:href="#m54d195643d" x="372.255966" y="164.121586" style="fill: #0000ff; stroke: #0000ff"/>
     <use xlink:href="#m54d195643d" x="378.28068" y="166.698958" style="fill: #0000ff; stroke: #0000ff"/>
     <use xlink:href="#m54d195643d" x="380.045455" y="163.301941" style="fill: #0000ff; stroke: #0000ff"/>
     <use xlink:href="#m54d195643d" x="376.760583" y="167.741767" style="fill: #0000ff; stroke: #0000ff"/>
     <use xlink:href="#m54d195643d" x="375.184637" y="167.530675" style="fill: #0000ff; stroke: #0000ff"/>
     <use xlink:href="#m54d195643d" x="372.942649" y="174.992662" style="fill: #0000ff; stroke: #0000ff"/>
     <use xlink:href="#m54d195643d" x="375.493531" y="166.436108" style="fill: #0000ff; stroke: #0000ff"/>
    </g>
   </g>
   <g id="PathCollection_23">
    <defs>
     <path id="mb456672685" d="M -1.414214 -0 
L 1.414214 1.414214 
L 1.414214 -1.414214 
z
" style="stroke: #ff0000"/>
    </defs>
    <g clip-path="url(#p86cb2689be)">
     <use xlink:href="#mb456672685" x="110.384917" y="155.231189" style="fill: #ff0000; stroke: #ff0000"/>
     <use xlink:href="#mb456672685" x="95.677893" y="199.479976" style="fill: #ff0000; stroke: #ff0000"/>
     <use xlink:href="#mb456672685" x="157.232875" y="212.901253" style="fill: #ff0000; stroke: #ff0000"/>
     <use xlink:href="#mb456672685" x="146.822253" y="164.059992" style="fill: #ff0000; stroke: #ff0000"/>
     <use xlink:href="#mb456672685" x="150.122781" y="233.385134" style="fill: #ff0000; stroke: #ff0000"/>
     <use xlink:href="#mb456672685" x="146.605168" y="145.31157" style="fill: #ff0000; stroke: #ff0000"/>
     <use xlink:href="#mb456672685" x="163.639582" y="193.1607" style="fill: #ff0000; stroke: #ff0000"/>
     <use xlink:href="#mb456672685" x="105.456164" y="199.161582" style="fill: #ff0000; stroke: #ff0000"/>
     <use xlink:href="#mb456672685" x="138.325787" y="101.507189" style="fill: #ff0000; stroke: #ff0000"/>
     <use xlink:href="#mb456672685" x="143.676157" y="109.259454" style="fill: #ff0000; stroke: #ff0000"/>
    </g>
   </g>
   <g id="PathCollection_24">
    <defs>
     <path id="mdd78ec10ee" d="M -1.414214 -0 
L 1.414214 1.414214 
L 1.414214 -1.414214 
z
" style="stroke: #ffc0cb"/>
    </defs>
    <g clip-path="url(#p86cb2689be)">
     <use xlink:href="#mdd78ec10ee" x="161.89285" y="163.123412" style="fill: #ffc0cb; stroke: #ffc0cb"/>
     <use xlink:href="#mdd78ec10ee" x="162.698395" y="157.847691" style="fill: #ffc0cb; stroke: #ffc0cb"/>
     <use xlink:href="#mdd78ec10ee" x="237.766937" y="88.580903" style="fill: #ffc0cb; stroke: #ffc0cb"/>
     <use xlink:href="#mdd78ec10ee" x="227.738166" y="105.238027" style="fill: #ffc0cb; stroke: #ffc0cb"/>
     <use xlink:href="#mdd78ec10ee" x="188.996592" y="233.050975" style="fill: #ffc0cb; stroke: #ffc0cb"/>
     <use xlink:href="#mdd78ec10ee" x="183.170764" y="108.322259" style="fill: #ffc0cb; stroke: #ffc0cb"/>
     <use xlink:href="#mdd78ec10ee" x="170.786556" y="139.940639" style="fill: #ffc0cb; stroke: #ffc0cb"/>
     <use xlink:href="#mdd78ec10ee" x="157.722272" y="141.865219" style="fill: #ffc0cb; stroke: #ffc0cb"/>
     <use xlink:href="#mdd78ec10ee" x="239.709598" y="110.044672" style="fill: #ffc0cb; stroke: #ffc0cb"/>
     <use xlink:href="#mdd78ec10ee" x="252.374443" y="108.938768" style="fill: #ffc0cb; stroke: #ffc0cb"/>
    </g>
   </g>
   <g id="PathCollection_25">
    <defs>
     <path id="m419454a709" d="M -0 2 
L 1.2 0 
L 0 -2 
L -1.2 -0 
z
" style="stroke: #000000"/>
    </defs>
    <g clip-path="url(#p86cb2689be)">
     <use xlink:href="#m419454a709" x="146.521518" y="220.873425" style="stroke: #000000"/>
     <use xlink:href="#m419454a709" x="161.525992" y="253.245072" style="stroke: #000000"/>
     <use xlink:href="#m419454a709" x="146.838108" y="219.679991" style="stroke: #000000"/>
     <use xlink:href="#m419454a709" x="145.59219" y="215.965884" style="stroke: #000000"/>
     <use xlink:href="#m419454a709" x="168.066704" y="194.831907" style="stroke: #000000"/>
     <use xlink:href="#m419454a709" x="135.019993" y="248.602847" style="stroke: #000000"/>
     <use xlink:href="#m419454a709" x="147.656319" y="213.595911" style="stroke: #000000"/>
     <use xlink:href="#m419454a709" x="154.930107" y="140.862542" style="stroke: #000000"/>
     <use xlink:href="#m419454a709" x="146.710752" y="246.945179" style="stroke: #000000"/>
     <use xlink:href="#m419454a709" x="133.932321" y="234.248588" style="stroke: #000000"/>
    </g>
   </g>
   <g id="PathCollection_26">
    <defs>
     <path id="ma622f0110f" d="M -0 2 
L 1.2 0 
L 0 -2 
L -1.2 -0 
z
" style="stroke: #0000ff"/>
    </defs>
    <g clip-path="url(#p86cb2689be)">
     <use xlink:href="#ma622f0110f" x="185.94587" y="233.215072" style="fill: #0000ff; stroke: #0000ff"/>
     <use xlink:href="#ma622f0110f" x="164.527458" y="198.236129" style="fill: #0000ff; stroke: #0000ff"/>
     <use xlink:href="#ma622f0110f" x="177.991376" y="230.242722" style="fill: #0000ff; stroke: #0000ff"/>
     <use xlink:href="#ma622f0110f" x="207.596133" y="264.070824" style="fill: #0000ff; stroke: #0000ff"/>
     <use xlink:href="#ma622f0110f" x="188.415672" y="262.996035" style="fill: #0000ff; stroke: #0000ff"/>
     <use xlink:href="#ma622f0110f" x="187.387929" y="196.655901" style="fill: #0000ff; stroke: #0000ff"/>
     <use xlink:href="#ma622f0110f" x="109.39976" y="156.437036" style="fill: #0000ff; stroke: #0000ff"/>
     <use xlink:href="#ma622f0110f" x="176.273209" y="256.292929" style="fill: #0000ff; stroke: #0000ff"/>
     <use xlink:href="#ma622f0110f" x="170.610847" y="221.878872" style="fill: #0000ff; stroke: #0000ff"/>
     <use xlink:href="#ma622f0110f" x="153.891164" y="257.517774" style="fill: #0000ff; stroke: #0000ff"/>
    </g>
   </g>
   <g id="PathCollection_27">
    <defs>
     <path id="m643be78184" d="M -0 2 
L 1.2 0 
L 0 -2 
L -1.2 -0 
z
" style="stroke: #ff0000"/>
    </defs>
    <g clip-path="url(#p86cb2689be)">
     <use xlink:href="#m643be78184" x="133.512692" y="272.245494" style="fill: #ff0000; stroke: #ff0000"/>
     <use xlink:href="#m643be78184" x="119.123678" y="277.990417" style="fill: #ff0000; stroke: #ff0000"/>
     <use xlink:href="#m643be78184" x="116.060019" y="262.022246" style="fill: #ff0000; stroke: #ff0000"/>
     <use xlink:href="#m643be78184" x="118.165037" y="261.422382" style="fill: #ff0000; stroke: #ff0000"/>
     <use xlink:href="#m643be78184" x="106.955006" y="286.105383" style="fill: #ff0000; stroke: #ff0000"/>
     <use xlink:href="#m643be78184" x="92.171985" y="286.918125" style="fill: #ff0000; stroke: #ff0000"/>
     <use xlink:href="#m643be78184" x="123.301334" y="242.086418" style="fill: #ff0000; stroke: #ff0000"/>
     <use xlink:href="#m643be78184" x="117.181639" y="261.046521" style="fill: #ff0000; stroke: #ff0000"/>
     <use xlink:href="#m643be78184" x="117.528253" y="286.789721" style="fill: #ff0000; stroke: #ff0000"/>
     <use xlink:href="#m643be78184" x="113.969088" y="250.20322" style="fill: #ff0000; stroke: #ff0000"/>
    </g>
   </g>
   <g id="PathCollection_28">
    <defs>
     <path id="mbbf4612d00" d="M -0 2 
L 1.2 0 
L 0 -2 
L -1.2 -0 
z
" style="stroke: #ffc0cb"/>
    </defs>
    <g clip-path="url(#p86cb2689be)">
     <use xlink:href="#mbbf4612d00" x="131.32683" y="185.280101" style="fill: #ffc0cb; stroke: #ffc0cb"/>
     <use xlink:href="#mbbf4612d00" x="141.744147" y="241.283093" style="fill: #ffc0cb; stroke: #ffc0cb"/>
     <use xlink:href="#mbbf4612d00" x="132.055283" y="141.906712" style="fill: #ffc0cb; stroke: #ffc0cb"/>
     <use xlink:href="#mbbf4612d00" x="72.141476" y="164.861416" style="fill: #ffc0cb; stroke: #ffc0cb"/>
     <use xlink:href="#mbbf4612d00" x="104.05995" y="230.082585" style="fill: #ffc0cb; stroke: #ffc0cb"/>
     <use xlink:href="#mbbf4612d00" x="131.971303" y="189.826691" style="fill: #ffc0cb; stroke: #ffc0cb"/>
     <use xlink:href="#mbbf4612d00" x="127.311807" y="221.365124" style="fill: #ffc0cb; stroke: #ffc0cb"/>
     <use xlink:href="#mbbf4612d00" x="127.593286" y="209.828668" style="fill: #ffc0cb; stroke: #ffc0cb"/>
     <use xlink:href="#mbbf4612d00" x="137.535531" y="246.294496" style="fill: #ffc0cb; stroke: #ffc0cb"/>
     <use xlink:href="#mbbf4612d00" x="137.348266" y="120.172081" style="fill: #ffc0cb; stroke: #ffc0cb"/>
    </g>
   </g>
   <g id="PathCollection_29">
    <defs>
     <path id="m760cadef97" d="M 0 -1.414214 
L -0.317511 -0.437016 
L -1.344997 -0.437016 
L -0.513743 0.166925 
L -0.831254 1.144123 
L -0 0.540181 
L 0.831254 1.144123 
L 0.513743 0.166925 
L 1.344997 -0.437016 
L 0.317511 -0.437016 
z
" style="stroke: #000000"/>
    </defs>
    <g clip-path="url(#p86cb2689be)">
     <use xlink:href="#m760cadef97" x="322.552602" y="158.656124" style="stroke: #000000"/>
     <use xlink:href="#m760cadef97" x="336.627778" y="183.175151" style="stroke: #000000"/>
     <use xlink:href="#m760cadef97" x="320.192334" y="149.768379" style="stroke: #000000"/>
     <use xlink:href="#m760cadef97" x="264.758384" y="182.777997" style="stroke: #000000"/>
     <use xlink:href="#m760cadef97" x="231.242089" y="145.145881" style="stroke: #000000"/>
     <use xlink:href="#m760cadef97" x="228.812653" y="148.736452" style="stroke: #000000"/>
     <use xlink:href="#m760cadef97" x="257.20044" y="153.873219" style="stroke: #000000"/>
     <use xlink:href="#m760cadef97" x="262.898963" y="101.205993" style="stroke: #000000"/>
     <use xlink:href="#m760cadef97" x="319.378455" y="154.891391" style="stroke: #000000"/>
     <use xlink:href="#m760cadef97" x="308.355333" y="167.008114" style="stroke: #000000"/>
    </g>
   </g>
   <g id="PathCollection_30">
    <defs>
     <path id="m58d5745d24" d="M 0 -1.414214 
L -0.317511 -0.437016 
L -1.344997 -0.437016 
L -0.513743 0.166925 
L -0.831254 1.144123 
L -0 0.540181 
L 0.831254 1.144123 
L 0.513743 0.166925 
L 1.344997 -0.437016 
L 0.317511 -0.437016 
z
" style="stroke: #0000ff"/>
    </defs>
    <g clip-path="url(#p86cb2689be)">
     <use xlink:href="#m58d5745d24" x="209.510513" y="221.579222" style="fill: #0000ff; stroke: #0000ff"/>
     <use xlink:href="#m58d5745d24" x="242.989612" y="217.506078" style="fill: #0000ff; stroke: #0000ff"/>
     <use xlink:href="#m58d5745d24" x="208.133136" y="222.895041" style="fill: #0000ff; stroke: #0000ff"/>
     <use xlink:href="#m58d5745d24" x="248.87755" y="202.213573" style="fill: #0000ff; stroke: #0000ff"/>
     <use xlink:href="#m58d5745d24" x="256.631537" y="200.031007" style="fill: #0000ff; stroke: #0000ff"/>
     <use xlink:href="#m58d5745d24" x="208.149827" y="195.740449" style="fill: #0000ff; stroke: #0000ff"/>
     <use xlink:href="#m58d5745d24" x="249.473656" y="201.344983" style="fill: #0000ff; stroke: #0000ff"/>
     <use xlink:href="#m58d5745d24" x="247.734768" y="203.73029" style="fill: #0000ff; stroke: #0000ff"/>
     <use xlink:href="#m58d5745d24" x="208.281097" y="181.202677" style="fill: #0000ff; stroke: #0000ff"/>
     <use xlink:href="#m58d5745d24" x="210.35227" y="213.268016" style="fill: #0000ff; stroke: #0000ff"/>
    </g>
   </g>
   <g id="PathCollection_31">
    <defs>
     <path id="m0c13fb2a57" d="M 0 -1.414214 
L -0.317511 -0.437016 
L -1.344997 -0.437016 
L -0.513743 0.166925 
L -0.831254 1.144123 
L -0 0.540181 
L 0.831254 1.144123 
L 0.513743 0.166925 
L 1.344997 -0.437016 
L 0.317511 -0.437016 
z
" style="stroke: #ff0000"/>
    </defs>
    <g clip-path="url(#p86cb2689be)">
     <use xlink:href="#m0c13fb2a57" x="256.959161" y="155.517126" style="fill: #ff0000; stroke: #ff0000"/>
     <use xlink:href="#m0c13fb2a57" x="236.53174" y="243.130225" style="fill: #ff0000; stroke: #ff0000"/>
     <use xlink:href="#m0c13fb2a57" x="212.943152" y="255.726482" style="fill: #ff0000; stroke: #ff0000"/>
     <use xlink:href="#m0c13fb2a57" x="242.07533" y="261.81526" style="fill: #ff0000; stroke: #ff0000"/>
     <use xlink:href="#m0c13fb2a57" x="206.978681" y="270.563147" style="fill: #ff0000; stroke: #ff0000"/>
     <use xlink:href="#m0c13fb2a57" x="252.216624" y="189.209273" style="fill: #ff0000; stroke: #ff0000"/>
     <use xlink:href="#m0c13fb2a57" x="259.760329" y="214.54735" style="fill: #ff0000; stroke: #ff0000"/>
     <use xlink:href="#m0c13fb2a57" x="256.791675" y="152.507326" style="fill: #ff0000; stroke: #ff0000"/>
     <use xlink:href="#m0c13fb2a57" x="248.050891" y="194.129099" style="fill: #ff0000; stroke: #ff0000"/>
     <use xlink:href="#m0c13fb2a57" x="262.488732" y="260.957971" style="fill: #ff0000; stroke: #ff0000"/>
    </g>
   </g>
   <g id="PathCollection_32">
    <defs>
     <path id="m14607948fe" d="M 0 -1.414214 
L -0.317511 -0.437016 
L -1.344997 -0.437016 
L -0.513743 0.166925 
L -0.831254 1.144123 
L -0 0.540181 
L 0.831254 1.144123 
L 0.513743 0.166925 
L 1.344997 -0.437016 
L 0.317511 -0.437016 
z
" style="stroke: #ffc0cb"/>
    </defs>
    <g clip-path="url(#p86cb2689be)">
     <use xlink:href="#m14607948fe" x="94.927426" y="257.207029" style="fill: #ffc0cb; stroke: #ffc0cb"/>
     <use xlink:href="#m14607948fe" x="73.735039" y="269.861399" style="fill: #ffc0cb; stroke: #ffc0cb"/>
     <use xlink:href="#m14607948fe" x="90.613629" y="284.410821" style="fill: #ffc0cb; stroke: #ffc0cb"/>
     <use xlink:href="#m14607948fe" x="36.894968" y="244.601097" style="fill: #ffc0cb; stroke: #ffc0cb"/>
     <use xlink:href="#m14607948fe" x="111.386144" y="270.475561" style="fill: #ffc0cb; stroke: #ffc0cb"/>
     <use xlink:href="#m14607948fe" x="93.848928" y="241.502189" style="fill: #ffc0cb; stroke: #ffc0cb"/>
     <use xlink:href="#m14607948fe" x="132.485436" y="238.343174" style="fill: #ffc0cb; stroke: #ffc0cb"/>
     <use xlink:href="#m14607948fe" x="75.07641" y="197.714162" style="fill: #ffc0cb; stroke: #ffc0cb"/>
     <use xlink:href="#m14607948fe" x="95.829189" y="241.084553" style="fill: #ffc0cb; stroke: #ffc0cb"/>
     <use xlink:href="#m14607948fe" x="54.535046" y="255.717837" style="fill: #ffc0cb; stroke: #ffc0cb"/>
    </g>
   </g>
   <g id="matplotlib.axis_1"/>
   <g id="matplotlib.axis_2"/>
   <g id="patch_3">
    <path d="M 7.2 299.518125 
L 7.2 22.318125 
" style="fill: none"/>
   </g>
   <g id="patch_4">
    <path d="M 397.8 299.518125 
L 397.8 22.318125 
" style="fill: none"/>
   </g>
   <g id="patch_5">
    <path d="M 7.2 299.518125 
L 397.8 299.518125 
" style="fill: none"/>
   </g>
   <g id="patch_6">
    <path d="M 7.2 22.318125 
L 397.8 22.318125 
" style="fill: none"/>
   </g>
   <g id="text_1">
    <!-- Isomap -->
    <g transform="translate(180.602812 16.318125) scale(0.12 -0.12)">
     <defs>
      <path id="DejaVuSans-49" d="M 628 4666 
L 1259 4666 
L 1259 0 
L 628 0 
L 628 4666 
z
" transform="scale(0.015625)"/>
      <path id="DejaVuSans-73" d="M 2834 3397 
L 2834 2853 
Q 2591 2978 2328 3040 
Q 2066 3103 1784 3103 
Q 1356 3103 1142 2972 
Q 928 2841 928 2578 
Q 928 2378 1081 2264 
Q 1234 2150 1697 2047 
L 1894 2003 
Q 2506 1872 2764 1633 
Q 3022 1394 3022 966 
Q 3022 478 2636 193 
Q 2250 -91 1575 -91 
Q 1294 -91 989 -36 
Q 684 19 347 128 
L 347 722 
Q 666 556 975 473 
Q 1284 391 1588 391 
Q 1994 391 2212 530 
Q 2431 669 2431 922 
Q 2431 1156 2273 1281 
Q 2116 1406 1581 1522 
L 1381 1569 
Q 847 1681 609 1914 
Q 372 2147 372 2553 
Q 372 3047 722 3315 
Q 1072 3584 1716 3584 
Q 2034 3584 2315 3537 
Q 2597 3491 2834 3397 
z
" transform="scale(0.015625)"/>
      <path id="DejaVuSans-6f" d="M 1959 3097 
Q 1497 3097 1228 2736 
Q 959 2375 959 1747 
Q 959 1119 1226 758 
Q 1494 397 1959 397 
Q 2419 397 2687 759 
Q 2956 1122 2956 1747 
Q 2956 2369 2687 2733 
Q 2419 3097 1959 3097 
z
M 1959 3584 
Q 2709 3584 3137 3096 
Q 3566 2609 3566 1747 
Q 3566 888 3137 398 
Q 2709 -91 1959 -91 
Q 1206 -91 779 398 
Q 353 888 353 1747 
Q 353 2609 779 3096 
Q 1206 3584 1959 3584 
z
" transform="scale(0.015625)"/>
      <path id="DejaVuSans-6d" d="M 3328 2828 
Q 3544 3216 3844 3400 
Q 4144 3584 4550 3584 
Q 5097 3584 5394 3201 
Q 5691 2819 5691 2113 
L 5691 0 
L 5113 0 
L 5113 2094 
Q 5113 2597 4934 2840 
Q 4756 3084 4391 3084 
Q 3944 3084 3684 2787 
Q 3425 2491 3425 1978 
L 3425 0 
L 2847 0 
L 2847 2094 
Q 2847 2600 2669 2842 
Q 2491 3084 2119 3084 
Q 1678 3084 1418 2786 
Q 1159 2488 1159 1978 
L 1159 0 
L 581 0 
L 581 3500 
L 1159 3500 
L 1159 2956 
Q 1356 3278 1631 3431 
Q 1906 3584 2284 3584 
Q 2666 3584 2933 3390 
Q 3200 3197 3328 2828 
z
" transform="scale(0.015625)"/>
      <path id="DejaVuSans-61" d="M 2194 1759 
Q 1497 1759 1228 1600 
Q 959 1441 959 1056 
Q 959 750 1161 570 
Q 1363 391 1709 391 
Q 2188 391 2477 730 
Q 2766 1069 2766 1631 
L 2766 1759 
L 2194 1759 
z
M 3341 1997 
L 3341 0 
L 2766 0 
L 2766 531 
Q 2569 213 2275 61 
Q 1981 -91 1556 -91 
Q 1019 -91 701 211 
Q 384 513 384 1019 
Q 384 1609 779 1909 
Q 1175 2209 1959 2209 
L 2766 2209 
L 2766 2266 
Q 2766 2663 2505 2880 
Q 2244 3097 1772 3097 
Q 1472 3097 1187 3025 
Q 903 2953 641 2809 
L 641 3341 
Q 956 3463 1253 3523 
Q 1550 3584 1831 3584 
Q 2591 3584 2966 3190 
Q 3341 2797 3341 1997 
z
" transform="scale(0.015625)"/>
      <path id="DejaVuSans-70" d="M 1159 525 
L 1159 -1331 
L 581 -1331 
L 581 3500 
L 1159 3500 
L 1159 2969 
Q 1341 3281 1617 3432 
Q 1894 3584 2278 3584 
Q 2916 3584 3314 3078 
Q 3713 2572 3713 1747 
Q 3713 922 3314 415 
Q 2916 -91 2278 -91 
Q 1894 -91 1617 61 
Q 1341 213 1159 525 
z
M 3116 1747 
Q 3116 2381 2855 2742 
Q 2594 3103 2138 3103 
Q 1681 3103 1420 2742 
Q 1159 2381 1159 1747 
Q 1159 1113 1420 752 
Q 1681 391 2138 391 
Q 2594 391 2855 752 
Q 3116 1113 3116 1747 
z
" transform="scale(0.015625)"/>
     </defs>
     <use xlink:href="#DejaVuSans-49"/>
     <use xlink:href="#DejaVuSans-73" x="29.492188"/>
     <use xlink:href="#DejaVuSans-6f" x="81.591797"/>
     <use xlink:href="#DejaVuSans-6d" x="142.773438"/>
     <use xlink:href="#DejaVuSans-61" x="240.185547"/>
     <use xlink:href="#DejaVuSans-70" x="301.464844"/>
    </g>
   </g>
  </g>
 </g>
 <defs>
  <clipPath id="p86cb2689be">
   <rect x="7.2" y="22.318125" width="390.6" height="277.2"/>
  </clipPath>
 </defs>
</svg>
