<?xml version="1.0" encoding="utf-8"?>
<!-- Generator: Adobe Illustrator 25.4.1, SVG Export Plug-In . SVG Version: 6.00 Build 0)  -->
<svg version="1.1" id="Layer_1" xmlns="http://www.w3.org/2000/svg" xmlns:xlink="http://www.w3.org/1999/xlink" x="0px" y="0px"
	 viewBox="0 0 500 650" style="enable-background:new 0 0 500 650;" xml:space="preserve">
<style type="text/css">
	.st0{fill:currentColor;}
</style>
<g>
	<g>
		<path class="st0" d="M147.1,296.4v68.2v34.1c0,18.8,15.3,34.1,34.1,34.1h0.4c18.8,0,34.1-15.3,34.1-34.1v-34.1v-68.2v-34.1
			c0-18.8-15.3-34.1-34.1-34.1h-0.4c-18.8,0-34.1,15.3-34.1,34.1V296.4z"/>
		<path class="st0" d="M284.3,501h68.6h68.6h34.5c18.8,0,34.1-15.3,34.1-34.1v0c0-18.8-15.3-34.1-34.1-34.1h-34.5H387
			c-18.8,0-34.1-15.3-34.1-34.1v-34.1v-34.1c0-18.8-15.3-34.1-34.1-34.1h-0.4c-18.8,0-34.1,15.3-34.1,34.1v34.1v34.1
			c0,18.8-15.3,34.1-34.1,34.1h-0.4c-18.8,0-34.1,15.3-34.1,34.1v0c0,18.8,15.3,34.1,34.1,34.1H284.3z"/>
		<path class="st0" d="M421.4,23.5H387c-18.8,0-34.1,15.3-34.1,34.1v0c0,18.8-15.3,34.1-34.1,34.1h-34.5h-34.5
			c-18.8,0-34.1,15.3-34.1,34.1V160v34.1c0,18.8,15.3,34.1,34.1,34.1h34.5h34.5c18.8,0,34.1-15.3,34.1-34.1v0
			c0-18.8,15.3-34.1,34.1-34.1h0.4c18.8,0,34.1,15.3,34.1,34.1v0c0,18.8,15.3,34.1,34.1,34.1h0.4c18.8,0,34.1-15.3,34.1-34.1V160
			V91.8V57.7c0-18.8-15.3-34.1-34.1-34.1H421.4z"/>
		<path class="st0" d="M455.5,364.6h0.4c18.8,0,34.1-15.3,34.1-34.1v0c0-18.8-15.3-34.1-34.1-34.1h-0.4c-18.8,0-34.1,15.3-34.1,34.1
			v0C421.4,349.3,436.7,364.6,455.5,364.6z"/>
		<path class="st0" d="M10,91.8V160v68.2v68.2v68.2v68.2v34.1c0,18.8,15.3,34.1,34.1,34.1h0.4c18.8,0,34.1-15.3,34.1-34.1v-34.1
			v-68.2v-68.2v-68.2V160V91.8V57.7c0-18.8-15.3-34.1-34.1-34.1h-0.4C25.3,23.5,10,38.8,10,57.7V91.8z"/>
	</g>
	<g>
		<path class="st0" d="M95.8,626.5c-4.1,0-7.3-0.8-9.6-2.4c-2.3-1.6-3.9-3.8-4.9-6.6c-0.9-2.8-1.4-6-1.4-9.6V588
			c0-3.8,0.5-7.1,1.4-9.9c0.9-2.8,2.5-5,4.9-6.5c2.3-1.5,5.5-2.3,9.6-2.3c3.9,0,6.9,0.7,9,2c2.2,1.3,3.7,3.2,4.6,5.6
			c0.9,2.4,1.4,5.2,1.4,8.5v4.7h-9.8v-4.8c0-1.6-0.1-3-0.2-4.3c-0.2-1.3-0.6-2.3-1.3-3.1c-0.7-0.8-1.9-1.1-3.7-1.1
			c-1.7,0-3,0.4-3.8,1.2c-0.8,0.8-1.3,1.9-1.5,3.2c-0.2,1.4-0.3,2.9-0.3,4.6V610c0,2,0.2,3.7,0.5,5c0.3,1.3,0.9,2.3,1.8,3
			c0.8,0.7,2,1,3.5,1c1.7,0,2.9-0.4,3.6-1.2c0.7-0.8,1.2-1.9,1.3-3.2c0.2-1.3,0.3-2.8,0.3-4.5v-5h9.8v4.5c0,3.3-0.4,6.2-1.3,8.8
			c-0.9,2.5-2.4,4.5-4.6,6C102.8,625.7,99.7,626.5,95.8,626.5z"/>
		<path class="st0" d="M146.8,626.5c-3.9,0-7.1-0.7-9.4-2.2c-2.3-1.5-4-3.6-5-6.3c-1-2.7-1.5-6-1.5-9.8v-20.8c0-3.8,0.5-7,1.5-9.7
			c1-2.7,2.7-4.7,5-6.2c2.3-1.4,5.5-2.1,9.4-2.1c4,0,7.2,0.7,9.5,2.1c2.3,1.4,4,3.5,5,6.2c1,2.7,1.5,5.9,1.5,9.7v20.9
			c0,3.7-0.5,6.9-1.5,9.7c-1,2.7-2.7,4.8-5,6.3C154,625.7,150.9,626.5,146.8,626.5z M146.8,619c1.7,0,2.9-0.4,3.8-1.1
			c0.8-0.7,1.3-1.7,1.6-3c0.3-1.3,0.4-2.7,0.4-4.2V585c0-1.6-0.1-3-0.4-4.2c-0.3-1.2-0.8-2.2-1.6-2.9c-0.8-0.7-2.1-1.1-3.8-1.1
			c-1.6,0-2.8,0.4-3.6,1.1c-0.8,0.7-1.4,1.7-1.7,2.9c-0.3,1.2-0.4,2.6-0.4,4.2v25.7c0,1.5,0.1,2.9,0.4,4.2c0.3,1.3,0.8,2.3,1.6,3
			C143.9,618.6,145.2,619,146.8,619z"/>
		<path class="st0" d="M184,625.7l1-55.7h10.5l7.9,38.6l8.3-38.6h10.2l1,55.7h-7.6l-0.8-38.7l-7.9,38.7h-6.1l-8-38.9l-0.8,38.9H184z
			"/>
		<path class="st0" d="M244.5,625.7V570h16.4c3.3,0,6.1,0.6,8.2,1.9c2.1,1.2,3.6,3,4.6,5.4c1,2.4,1.5,5.2,1.5,8.6
			c0,3.6-0.6,6.5-1.9,8.8c-1.2,2.2-3,3.8-5.2,4.9c-2.2,1-4.9,1.5-7.9,1.5h-5.5v24.8H244.5z M254.7,593.8h3.9c1.8,0,3.3-0.3,4.3-0.8
			c1-0.5,1.7-1.4,2.1-2.5c0.4-1.2,0.6-2.7,0.6-4.7c0-2-0.1-3.7-0.4-4.9s-0.9-2.2-1.9-2.8c-1-0.6-2.5-0.9-4.6-0.9h-3.9V593.8z"/>
		<path class="st0" d="M309.8,626.5c-4.1,0-7.3-0.8-9.6-2.3c-2.3-1.5-3.9-3.7-4.7-6.5c-0.9-2.8-1.3-6.1-1.3-10V570h9.9v38.9
			c0,1.7,0.1,3.4,0.3,4.9c0.2,1.5,0.8,2.8,1.6,3.7c0.8,0.9,2.1,1.4,3.8,1.4c1.8,0,3.1-0.5,3.9-1.4c0.8-0.9,1.3-2.2,1.6-3.7
			c0.2-1.5,0.4-3.2,0.4-4.9V570h9.8v37.7c0,3.9-0.4,7.2-1.3,10c-0.9,2.8-2.4,5-4.7,6.5C317.2,625.7,313.9,626.5,309.8,626.5z"/>
		<path class="st0" d="M352.8,625.7v-48.2h-8.9V570h27.8v7.5h-8.7v48.2H352.8z"/>
		<path class="st0" d="M405.4,626.5c-3.9,0-7.1-0.7-9.4-2.2c-2.3-1.5-4-3.6-5-6.3c-1-2.7-1.5-6-1.5-9.8v-20.8c0-3.8,0.5-7,1.5-9.7
			c1-2.7,2.7-4.7,5-6.2c2.3-1.4,5.5-2.1,9.4-2.1c4,0,7.2,0.7,9.5,2.1c2.3,1.4,4,3.5,5,6.2c1,2.7,1.5,5.9,1.5,9.7v20.9
			c0,3.7-0.5,6.9-1.5,9.7c-1,2.7-2.7,4.8-5,6.3C412.6,625.7,409.4,626.5,405.4,626.5z M405.4,619c1.7,0,2.9-0.4,3.8-1.1
			c0.8-0.7,1.3-1.7,1.6-3c0.3-1.3,0.4-2.7,0.4-4.2V585c0-1.6-0.1-3-0.4-4.2c-0.3-1.2-0.8-2.2-1.6-2.9c-0.8-0.7-2.1-1.1-3.8-1.1
			c-1.6,0-2.8,0.4-3.6,1.1c-0.8,0.7-1.4,1.7-1.7,2.9c-0.3,1.2-0.4,2.6-0.4,4.2v25.7c0,1.5,0.1,2.9,0.4,4.2c0.3,1.3,0.8,2.3,1.6,3
			C402.5,618.6,403.7,619,405.4,619z"/>
	</g>
</g>
</svg>
